<?xml version="1.0" encoding="UTF-8"?>
<svg width="139px" height="108px" viewBox="0 0 139 108" version="1.1" xmlns="http://www.w3.org/2000/svg" xmlns:xlink="http://www.w3.org/1999/xlink">
    <!-- Generator: Sketch 51.3 (57544) - http://www.bohemiancoding.com/sketch -->
    <title>GH_DelivertoyourDesktop</title>
    <desc>Created with Sketch.</desc>
    <defs>
        <polygon id="path-1" points="0.440697127 0.080282135 45.5273406 0.080282135 45.5273406 45.0443146 0.440697127 45.0443146"></polygon>
    </defs>
    <g id="Page-1" stroke="none" stroke-width="1" fill="none" fill-rule="evenodd">
        <g id="Specs" transform="translate(-655.000000, -1010.000000)">
            <g id="GH_valueprops" transform="translate(128.000000, 229.000000)">
                <g id="Group-6" transform="translate(104.000000, 781.000000)">
                    <g id="Group-14" transform="translate(353.000000, 0.000000)">
                        <g id="GH_DelivertoyourDesktop" transform="translate(70.000000, 0.000000)">
                            <g id="Group-3" transform="translate(86.831048, 0.000000)">
                                <mask id="mask-2" fill="white">
                                    <use xlink:href="#path-1"></use>
                                </mask>
                                <g id="Clip-2"></g>
                                <path d="M10.4287957,21.3631279 C9.46915891,22.9071346 8.55615675,24.5055261 7.80119412,26.1738406 C5.69590026,30.8296865 3.62739593,35.5083221 1.66822387,40.236163 C1.06508283,41.6910824 0.859372352,43.3376431 0.440697127,45.0240859 C1.99622067,45.0266757 3.49526452,45.0049218 4.99327203,45.043768 C5.59434043,45.0593065 5.78087889,44.7428395 5.87932975,44.186562 C6.03788745,43.2827405 6.1404836,42.3452523 6.44568126,41.4968515 C7.55299433,38.4207508 8.67222512,35.3451681 9.91011511,32.3286316 C10.8852968,29.9512446 11.9407936,27.5982011 13.1424122,25.3477115 C14.5502595,22.7118678 16.1202916,20.1723626 17.688251,17.6401086 C18.6800139,16.0386095 19.813235,14.5391464 20.8397148,12.960955 C21.0112265,12.6978368 22.8978558,10.5032858 23.2388067,10.2634753 C24.9238709,9.07737151 26.5509008,7.79389325 28.2390739,6.61296894 C30.5511146,4.99593136 33.0191221,3.94708411 35.8529523,3.85747889 C39.1261843,3.75440699 41.9050893,6.71707674 40.7791223,10.3049113 C39.6313926,13.9605971 38.3898755,17.585206 37.076852,21.1756303 C36.161259,23.6778431 35.0337376,26.0888969 34.0440474,28.5610687 C33.2942664,30.436563 32.6170281,32.345206 31.8998913,34.2362388 C31.0050249,36.5923899 30.0832139,38.9371462 29.2163282,41.3052102 C28.9505109,42.0298212 28.8277064,42.8155503 28.63495,43.5904024 C30.1096402,43.512192 31.5801851,43.380115 33.05073,43.3785611 C33.7497311,43.3775252 33.9834224,43.0284274 34.1725517,42.4125857 C34.7425303,40.5562556 35.363807,38.7180537 35.9368947,36.8622415 C36.825025,33.9824436 37.6499396,31.079338 38.5748595,28.2135248 C39.903946,24.097382 41.3035027,20.0092085 42.6621245,15.9044607 C43.4176053,13.6223763 44.1995124,11.3480611 44.8741599,9.03800737 C45.241537,7.78042657 45.8788768,6.51455859 45.2840263,5.11505969 C44.169459,2.4926826 42.1092452,1.14860427 39.6464193,0.571608801 C38.0815689,0.205418676 36.4348487,0.23753153 34.8233636,0.115813454 C32.5045869,-0.0592533951 30.2448806,0.41156248 28.226638,1.54897905 C25.4679414,3.10386272 23.1683366,5.37817791 20.9718462,7.75245731 C18.4867393,10.4380242 15.9187264,13.0355397 13.9175832,16.1996918 C12.8061248,17.9586474 11.5267818,19.5948491 10.4287957,21.3631279" id="Fill-1" fill="#F63440" mask="url(#mask-2)"></path>
                            </g>
                            <path d="M78.8632217,42.1283458 C79.6220244,42.1536812 79.8699347,41.7444168 79.9426966,41.1217501 C80.2659673,38.3470344 81.3558368,35.8266473 82.5600463,33.3710604 C83.937845,30.5641881 85.3878859,27.7855746 87.4922642,25.4274317 C88.3440983,24.471994 89.0072711,23.2948714 89.9859187,22.5148328 C91.8283542,21.0468401 93.8350237,19.7898135 95.780885,18.4553189 C96.2039435,18.1644488 96.6275217,17.8155996 97.1035925,17.6743059 C98.0281885,17.399514 98.5557123,16.7544352 99.0785586,16.0036298 C99.9912008,14.6939834 100.988559,13.4452396 101.943819,12.1658008 C102.179775,11.8495953 102.391824,11.5148754 102.614268,11.1884383 C102.578926,11.1109704 102.543585,11.0339897 102.507204,10.9565217 C102.243702,10.9828316 101.96045,10.9560345 101.719296,11.0442213 C100.227677,11.5903945 98.739696,12.1472865 97.2615898,12.7300012 C94.8531706,13.6805666 92.6739515,15.0511154 90.7166562,16.7354337 C89.2281554,18.016334 87.8851785,19.4701974 86.4735975,20.8431823 C84.4393825,22.8217812 82.698294,25.062017 81.4654993,27.6072523 C79.8252381,30.9948903 78.3731183,34.4804594 76.950623,37.9699264 C76.4163427,39.2800599 76.1913005,40.7193067 75.7827943,42.2608696 C76.9989577,42.2014288 77.9334284,42.0981382 78.8632217,42.1283458" id="Fill-4" fill="#F63440"></path>
                            <path d="M34.5307073,73.6108554 C32.0519665,73.6680201 29.5674902,73.9788232 27.0968465,73.8039664 C24.3259335,73.6074928 21.5836978,74.0460757 18.828979,74.1719342 C17.0921398,74.2511961 15.358337,74.5408626 13.6214978,74.5744889 C9.95821101,74.6455845 6.30538306,74.8694395 2.68022038,75.7557326 C2.31551114,75.8446021 1.9379814,75.8321123 1.57867025,75.9536473 C1.13838758,76.1025638 0.695743244,76.2903906 0.287174421,76.574773 C0.144124726,76.6742107 -0.00735950282,77.1478611 0.0287403023,77.3842059 C0.226445777,78.6735341 0.324623752,80.0805542 1.28683538,80.7021603 C1.50579588,80.8438711 1.71699661,81.0302568 1.91335256,81.2382595 C2.33305497,81.6816462 2.62995056,81.0249727 2.99432243,80.9812585 C4.16874693,80.8414692 5.34215929,80.6815041 6.51692117,80.5426756 C8.09654068,80.3553291 9.67582281,80.1381993 11.2584788,80.0118605 C13.1896496,79.8581403 15.1241943,79.7947308 17.0570521,79.6741565 C18.372502,79.5915319 19.686265,79.438292 21.0020523,79.388333 C22.4534669,79.3335702 23.9058937,79.3455795 25.357983,79.3580693 C26.0853772,79.3647946 26.8124341,79.4757613 27.5398283,79.4723987 C28.3104073,79.4690361 29.083348,79.3047476 29.8508905,79.3547067 C31.2692418,79.4469388 32.6842192,79.6573433 34.1018956,79.7947308 C35.441637,79.9253929 36.7827279,80.0416438 38.1238188,80.1314741 C38.9153155,80.1852761 39.6275275,79.5065054 39.9065419,78.422778 C40.3002659,76.8913405 40.6605892,75.340688 41.0597114,73.697323 C40.8667292,73.6377565 40.7415607,73.5647394 40.6163923,73.5652197 C38.5877182,73.5729058 36.5590441,73.5637786 34.5307073,73.6108554" id="Fill-8" fill="#F63440" opacity="0.458258929"></path>
                            <path d="M52.1328315,57.2603495 C52.4406652,57.1835108 52.850662,56.6808575 52.9169784,56.2923951 C53.2212274,54.5101636 53.4076303,52.6953823 53.6639343,50.8992772 C53.7445894,50.3341924 53.6124046,50.1719773 53.1786594,50.1698429 C50.8253226,50.1586373 48.4710896,50.042312 46.1195452,50.1058107 C42.2758813,50.2087959 38.4344577,50.4110311 34.5921381,50.5956575 C32.2894347,50.7061132 29.9880757,50.859257 27.6858205,50.9990608 C24.4018134,51.1980944 21.1083965,51.2701307 17.8373838,51.6585932 C16.1113645,51.8634964 14.4256728,52.6238796 12.6499162,53.1542803 C12.9071164,54.0651393 13.1535625,54.6942564 13.2584142,55.360192 C13.5017237,56.9044368 14.491093,57.5516964 15.5539481,56.8041196 C15.6991273,56.7022016 15.8756724,56.6162916 16.0369826,56.6189596 C17.3041639,56.6408373 18.5722415,56.6664502 19.8385266,56.7278145 C22.3218078,56.847875 24.8050889,56.9700699 27.2865777,57.1338858 C28.5994636,57.2203294 29.9078687,57.460984 31.2216507,57.5111426 C32.3682975,57.5543644 33.518529,57.3884141 34.6669681,57.3857461 C36.9392017,57.3814773 39.2109872,57.3953509 41.4818765,57.4604504 C43.0017772,57.5042058 44.5310877,57.5298187 46.0348573,57.7784773 C48.1076936,58.1205164 50.122727,57.7603348 52.1328315,57.2603495" id="Fill-11" fill="#F63440" opacity="0.458258929"></path>
                            <path d="M30.0779312,100.787487 C27.7934208,100.60837 25.5130565,100.230736 23.2281692,100.192386 C19.5177715,100.129221 15.8051123,100.239759 12.0947146,100.347139 C10.2870076,100.399927 8.48269294,100.61965 6.67611674,100.745979 C5.86498551,100.803279 5.70253311,101.131735 6.07719131,102.086425 C6.35498114,102.793869 6.60450199,103.53425 6.96370648,104.167702 C7.15555862,104.505182 7.54453976,104.814238 7.86077541,104.843113 C8.61423792,104.913046 9.37825418,104.828676 10.1366167,104.770474 C12.3581815,104.599027 14.5782386,104.377499 16.8009342,104.245304 C17.5675889,104.199284 18.3282128,104.263351 19.1073059,104.1862 C22.1196483,103.888875 25.1184215,103.227901 28.1556406,103.44221 C28.2577859,103.448978 28.3610619,103.416944 28.463584,103.401153 C29.4612905,103.244595 30.4593739,103.087134 31.4574573,102.931027 C31.8984534,102.862448 32.3402033,102.797028 32.7193845,102.739277 C32.7680072,102.00792 32.8075837,101.413269 32.8524372,100.738309 C32.6413622,100.7347 32.4423485,100.72342 32.2444657,100.729286 C31.5222875,100.75004 30.7963401,100.843884 30.0779312,100.787487" id="Fill-13" fill="#F63440" opacity="0.46"></path>
                            <path d="M118.570263,59.8459004 C118.495299,60.3137411 118.436765,60.7830734 118.373098,61.2514113 C118.366936,61.3026202 118.395689,61.3657613 118.372584,61.4040437 C117.78725,62.3700527 117.88686,63.4270446 117.613704,64.4343191 C117.489962,64.8892333 117.312308,65.3535938 117.288176,65.803039 C117.241452,66.6825398 116.988834,67.5008882 116.63866,68.3421066 C116.398879,68.9183312 116.384502,69.563663 116.252545,70.1761814 C116.008656,71.3087437 115.702639,72.4373286 115.511636,73.5708853 C115.255937,75.0872659 115.116278,76.607624 114.869822,78.1245018 C114.680359,79.2893804 114.351236,80.4507788 114.172556,81.6156575 C113.908642,83.3338907 113.558982,85.0739997 113.550766,86.7668771 C113.542551,88.6834828 112.759539,90.5419191 112.673279,92.4326717 C112.656335,92.7921285 112.544403,93.1590429 112.526945,93.5184997 C112.509488,93.8734819 112.309756,93.9475609 112.009387,93.9803743 C111.100065,94.0788148 110.19023,94.1757637 109.280395,94.3035374 C108.808534,94.3691644 108.337699,94.4989268 107.758527,94.6232203 C107.901779,93.6134599 107.979824,92.7299818 108.161072,91.8529669 C108.508678,90.1660556 108.950246,88.4846132 109.284503,86.7972047 C109.858027,83.8981832 110.363263,80.9956815 110.928573,78.0961629 C111.159626,76.9079171 111.478992,75.724643 111.754715,74.538883 C111.998604,73.4863657 111.428674,72.9653274 110.361209,73.2168974 C109.692183,73.3740044 109.017508,73.4719477 108.344888,73.5922638 C106.953436,73.8408508 105.560443,74.0710423 104.166937,74.3420021 C103.741287,74.4250302 103.283802,74.5458435 102.903848,74.7775265 C102.436094,75.0629044 102.050493,75.013187 101.618167,74.9480572 C101.360415,74.9087805 101.075963,74.9401024 100.802294,74.9768933 C100.357645,75.0350627 100.502438,75.4313103 100.355591,75.6619991 C99.7964432,76.5385168 99.8462479,77.4970682 99.5145586,78.4009305 C99.3286894,78.9045678 99.0781253,79.3987587 98.9415474,79.9068705 C98.6067774,81.1498054 98.3290004,82.3987065 98.0132281,83.6441273 C97.689754,84.9173899 97.3303384,86.1871722 97.0217544,87.4614291 C96.8430734,88.1997325 96.7198452,88.9435048 96.5986708,89.6857855 C96.3080576,91.4621881 96.0333613,93.2385908 95.7519902,95.0154906 C95.686782,95.4266535 95.6154123,95.8388107 95.534287,96.3315101 C94.1238374,96.1709229 92.5444623,96.940051 91.0061634,96.5815886 C91.2125706,95.9800081 91.4174375,95.4241676 91.5904705,94.8638525 C91.920106,93.7949285 92.2055847,92.7195411 92.5567851,91.6545945 C92.8232662,90.8451952 93.1724128,90.0482253 93.4645664,89.2428035 C93.5323419,89.0538774 93.515398,88.8505332 93.5497992,88.6531552 C93.6298976,88.1942636 93.7069152,87.7338805 93.8070381,87.2749889 C93.8655715,87.0055206 93.9569658,86.7370466 94.0478466,86.4705614 C94.347702,85.5900663 94.6516649,84.7110627 94.9571682,83.8315619 C95.1158245,83.3731675 95.3294201,82.9192476 95.4357045,82.4583674 C95.6729188,81.4282229 95.8356827,80.3936038 96.0764912,79.3634593 C96.1740469,78.945336 96.3594027,78.5207494 96.5688907,78.1235074 C97.318529,76.6986068 97.7452067,75.2438757 98.0383872,73.7260036 C98.2781688,72.4775997 98.8373168,71.2376478 99.2537255,69.9937185 C99.4118684,69.5204089 99.6732149,69.0361614 99.7050489,68.5752812 C99.7882279,67.3572049 100.245713,66.1958065 100.612317,65.0145211 C100.782782,64.465641 100.787917,63.893891 100.915253,63.3360618 C101.218189,62.0056242 101.545257,60.6766781 101.870271,59.3482293 C101.948829,59.0250662 102.021739,58.6894737 102.171154,58.3881863 C102.261521,58.2052263 102.483332,57.9964132 102.665093,57.9392382 C103.280208,57.7458375 103.903024,57.5832616 104.522759,57.4689116 C105.197433,57.3441209 105.876729,57.247172 106.546269,57.2108783 C107.011456,57.1860196 106.843557,57.629996 106.712627,57.8462667 C106.359373,58.4289546 106.259763,58.9957329 106.274653,59.616206 C106.281842,59.9473239 106.12986,60.3167242 106.014847,60.6622601 C105.83822,61.187773 105.593818,61.7023481 105.446457,62.2313412 C105.209756,63.0834974 105.010024,63.9421168 104.828776,64.8007363 C104.607992,65.8502706 104.450876,66.9047766 104.204933,67.9523222 C104.126375,68.2874174 103.772607,68.5737896 104.026765,68.9546249 C104.273735,69.3245223 105.048019,69.732205 105.524502,69.6496741 C105.702156,69.6183522 105.880837,69.6506685 106.059004,69.620838 C106.65358,69.5219004 107.252264,69.3558443 107.841192,69.3140817 C108.422932,69.2723191 109.01186,69.2981721 109.567928,69.3916408 C110.116807,69.4846124 110.622556,69.5850415 111.200188,69.2449745 C111.399407,69.1276414 111.685913,69.1286358 111.914398,69.152003 C112.512055,69.2141497 113.010103,68.8626477 113.146681,68.2327283 C113.313552,67.4685719 113.45013,66.7009352 113.644215,65.9407562 C113.811086,65.2834922 114.034951,64.6326915 114.242898,63.9813936 C114.684466,62.593781 115.135789,61.2086543 115.568115,59.8200474 C115.679021,59.4650651 115.790953,59.0976536 115.817652,58.741677 C115.858728,58.1818591 115.963472,57.7692047 116.636607,57.7055664 C117.344655,57.6394423 118.067081,57.4460416 118.672439,57.8601875 C118.756645,57.9178597 118.874739,58.0252493 118.86293,58.1077802 C118.781804,58.687485 118.663711,59.2661956 118.570263,59.8459004 M90.6000237,81.1637263 C90.2976011,82.5836552 89.7379396,83.9016634 89.0093527,85.1704514 C88.577027,85.9226757 88.3023308,86.7589223 87.9352134,87.5484346 C87.604551,88.2588962 87.2353798,88.9529511 86.9047174,89.6639099 C86.8389957,89.8061016 86.8733969,89.9915475 86.8713431,90.0164062 C86.5545438,90.4409928 86.3137354,90.7154328 86.1299199,91.0221892 C85.7864213,91.5954308 85.234975,92.027475 85.0871011,92.7488744 C85.0136776,93.1058453 84.5731367,93.402161 84.2753352,93.70494 C83.5339121,94.4571642 82.8022445,95.2203263 82.0187184,95.9307879 C81.6952443,96.2241205 81.2480286,96.3891823 80.8593462,96.6173851 C80.5168744,96.8177462 80.2016156,97.0916891 79.8324444,97.2100165 C79.4945937,97.3179033 79.0715101,97.3527055 78.7408477,97.2522763 C78.4024835,97.1488641 78.1118703,97.1448867 77.7781272,97.1936098 C76.5206859,97.3765698 75.4922437,96.811283 74.474584,96.214177 C74.1454619,96.0212735 73.8168533,95.7816357 73.454357,95.6971161 C72.4988248,95.473885 71.7789666,94.8961688 71.0462722,94.3298877 C70.2694209,93.7288043 69.4550878,93.1610316 68.7542272,92.4838807 C67.8977911,91.6570803 67.5563462,90.5632976 67.6082048,89.4148257 C67.6487674,88.5273701 67.3997437,87.7179709 67.1959037,86.8847073 C67.1322358,86.6231938 67.093727,86.3427877 67.1168323,86.0772968 C67.2282511,84.8114918 67.3222126,83.5412123 67.5121895,82.2853508 C67.5984492,81.7175781 67.89317,81.1796359 68.0934159,80.6282699 C68.1617049,80.439841 68.2325611,80.2529036 68.2982828,80.0639775 C68.7393372,78.799664 69.1475307,77.5244128 69.6296611,76.2745174 C69.9603235,75.4158979 70.3336023,74.5697078 70.7392285,73.7409188 C70.6863431,73.4535522 70.7269057,73.1398355 70.9153422,72.8266159 C75.3222915,65.5097064 82.0793056,59.944838 90.2426618,56.9175457 C90.690391,56.8892068 91.1386337,56.8732972 91.5894436,56.8782689 C91.6192238,56.892687 91.6515712,56.9016361 91.6803244,56.9175457 C91.5473406,57.7373856 91.397413,58.5547396 91.281373,59.3775625 C91.2541601,59.3880032 91.2269473,59.398941 91.1997344,59.4088845 C91.135553,59.7653582 91.0703447,60.1074139 90.9969212,60.4474809 C90.9281188,60.7641808 90.8074578,61.076406 90.664205,61.3692415 C90.6061851,61.4895576 90.4367463,61.6113652 90.3001683,61.6342352 C89.5495031,61.7615118 88.7931899,61.8549805 88.0389305,61.9688333 C87.9424017,61.9832514 87.8468998,62.0339631 87.7601266,62.0841777 C87.3611752,62.3143692 86.9699256,62.5574873 86.5668667,62.7802212 C86.317843,62.9179384 86.0441736,63.013893 85.794123,63.1501187 C85.0316484,63.5667505 84.235286,63.9421168 83.5277507,64.4348162 C83.0317571,64.7808493 82.671828,65.3048707 82.2276929,65.7259771 C81.9057592,66.0302475 81.5283728,66.2803261 81.206439,66.5855909 C80.9918165,66.7884379 80.8578059,67.0713299 80.641643,67.2726853 C80.2272881,67.6579952 79.7297542,67.9677345 79.3585292,68.3858579 C78.6196733,69.2161384 77.8910864,70.0633229 77.2554342,70.9676823 C76.5468719,71.9759512 75.9065986,73.0359261 75.3089417,74.1108162 C74.7770066,75.0683733 74.3241429,76.0696817 73.8717926,77.0665156 C73.4969734,77.8933159 73.2037929,78.7549184 72.8197317,79.5777413 C72.3170632,80.6551173 72.1270864,81.7901655 72.0433939,82.9525583 C71.9607283,84.1035161 71.738404,85.2659088 71.8339059,86.4034429 C71.9427575,87.7035529 72.3581393,88.9658776 73.1329367,90.0914795 C73.9457295,91.2722677 74.9217997,92.1179606 76.5032286,92.0463676 C76.9874128,92.0239947 77.4885409,92.1656893 77.9588619,92.0916104 C78.8743449,91.9479271 79.7733975,91.756018 80.4182919,90.9665057 C80.7833555,90.5190491 81.3835796,90.2515695 81.7496701,89.8051073 C82.3360311,89.0886796 82.8212422,88.2946927 83.3398276,87.5270561 C84.0334998,86.5003918 84.6244818,85.4299762 85.0424309,84.2596287 C85.3823354,83.3085349 85.8788424,82.4111358 86.2639306,81.4734657 C86.5293848,80.8291282 86.7280903,80.1584405 86.9463069,79.4962048 C87.0772369,79.0979684 87.2518102,78.6987377 87.2898056,78.2900607 C87.3278009,77.8863554 87.0305129,77.7068756 86.604862,77.7357117 C86.4903625,77.7436665 86.370215,77.6700848 86.2521213,77.6362769 C85.7335358,77.4896106 85.2144369,77.3384697 84.7153626,77.6949435 C84.6876363,77.7148304 84.6450199,77.7212937 84.6080514,77.7232824 C83.7665053,77.7744913 82.9239324,77.8237115 82.0187184,77.8774063 C82.0510658,77.6999152 82.0526062,77.5388308 82.1090858,77.3986278 C82.6394806,76.0781337 83.1431759,74.7467018 83.7480211,73.4595183 C83.8630341,73.2139144 84.3790523,73.0518357 84.727172,73.0200165 C85.7284013,72.9275422 86.7383593,72.9215761 87.7452365,72.8798135 C87.8166062,72.8768304 87.9038929,72.8778248 87.9547245,72.8400396 C88.6689348,72.304086 89.514075,72.3950688 90.3386772,72.3264588 C91.0056499,72.2707753 91.6613267,72.0878153 92.3247053,71.975454 C92.5670542,71.9346857 92.8181317,71.9361773 93.1226081,71.9143016 C93.0425097,72.8032487 93.0573998,73.7090997 92.6702578,74.5801485 C92.401723,75.1842149 92.244607,75.8340213 92.0392266,76.4644379 C91.5930378,77.833655 91.1447951,79.202375 90.7057946,80.5735808 C90.6452074,80.7625069 90.6410997,80.9678398 90.6000237,81.1637263 M137.972546,45.3930528 C136.01065,45.4641487 134.047727,45.5253011 132.085318,45.6023631 C129.958604,45.6848939 127.832404,45.8027242 125.704663,45.8648709 C122.925867,45.9459103 120.14553,45.959334 117.368274,46.059266 C116.249978,46.099537 115.139384,46.3287343 114.021601,46.4038075 C112.314377,46.5186547 110.601504,46.5405304 108.895307,46.6668126 C107.528501,46.768236 106.160154,47.1301787 104.807211,47.0590828 C104.028819,47.0178174 103.271992,46.8671737 102.458173,46.9526876 C99.8041449,47.2330937 97.1398481,47.4145622 94.4781185,47.6129346 C91.6736496,47.8212505 88.8686672,48.1374532 86.0621444,48.1677808 C82.4916067,48.205566 78.9190152,47.9863123 75.3469371,47.9097475 C73.240248,47.8645047 71.1294512,47.8123014 69.0243024,47.8848888 C66.0498812,47.9873066 63.0800811,48.2319162 60.1061733,48.3567069 C58.7732548,48.4123904 58.378411,48.6291583 58.3024203,49.8169069 C58.1150107,52.7701203 57.4701163,55.6283735 56.7913342,58.4891126 C56.3097172,60.5180796 56.0678818,62.6116793 55.5421081,64.6262282 C54.8253306,67.3756003 53.7861059,70.0389613 53.1612362,72.8067289 C52.1446033,77.3091365 50.63095,81.6067083 48.8795689,85.835173 C47.863963,88.2882295 46.9346168,90.7805626 45.9950016,93.2669297 C44.7534773,96.5517582 43.5140068,99.8380782 42.3263948,103.145279 C41.8386164,104.504553 41.4884429,105.918516 41.0597114,107.360818 C42.1312834,107.967867 43.3959131,108.007144 44.657462,107.999189 C46.3148816,107.989743 47.9728146,107.900251 49.6302342,107.903234 C51.7394906,107.906715 53.8482335,108.016093 55.9569764,107.99024 C57.8639332,107.966873 59.7693495,107.818218 61.6752794,107.734692 C63.2705714,107.665585 64.8668903,107.632275 66.460642,107.538309 C67.1322358,107.498535 67.7951009,107.293699 68.4672082,107.249948 C70.6858296,107.104773 72.9080452,107.028705 75.1261532,106.86961 C77.4551666,106.703056 79.7795589,106.465407 82.107032,106.268526 C85.0917222,106.016459 88.0774393,105.781793 91.0616161,105.526743 C93.2658609,105.338314 95.4649712,105.070834 97.6717832,104.944552 C100.273439,104.7954 102.883824,104.815287 105.485479,104.664146 C108.795697,104.470248 112.098727,104.135153 115.409459,103.941255 C118.158475,103.781165 120.921868,103.572849 123.664723,103.707583 C125.137813,103.779673 126.149825,103.272059 126.684328,102.088785 C127.533575,100.209964 128.232382,98.2307147 128.767398,96.2276007 C129.705473,92.7160609 130.461786,89.1523178 131.31052,85.614925 C131.940011,82.9908407 132.616226,80.3786886 133.23134,77.7506269 C133.644155,75.9841678 133.980979,74.1983189 134.361959,72.4234078 C134.706998,70.818033 135.110571,69.2255847 135.406832,67.6112608 C135.87972,65.0363968 136.262755,62.4441316 136.725374,59.8667817 C137.108408,57.7368884 137.61159,55.6293679 137.953035,53.4925141 C138.323747,51.1761806 138.536315,48.8329996 138.885462,46.5121914 C139.014852,45.6555607 138.73194,45.3657083 137.972546,45.3930528" id="Fill-15" fill="#F63440"></path>
                        </g>
                    </g>
                </g>
            </g>
        </g>
    </g>
</svg>