<?xml version="1.0" encoding="UTF-8"?>
<svg width="189px" height="110px" viewBox="0 0 189 110" version="1.1" xmlns="http://www.w3.org/2000/svg" xmlns:xlink="http://www.w3.org/1999/xlink">
    <!-- Generator: Sketch 51.3 (57544) - http://www.bohemiancoding.com/sketch -->
    <title>GH_SpendLess</title>
    <desc>Created with Sketch.</desc>
    <defs></defs>
    <g id="Page-1" stroke="none" stroke-width="1" fill="none" fill-rule="evenodd">
        <g id="Specs" transform="translate(-983.000000, -1019.000000)">
            <g id="GH_valueprops" transform="translate(128.000000, 229.000000)">
                <g id="Group-6" transform="translate(104.000000, 781.000000)">
                    <g id="Group-16" transform="translate(705.000000, 9.000000)">
                        <g id="GH_SpendLess" transform="translate(46.000000, 0.000000)">
                            <path d="M80.9995397,39.7416641 C80.7848399,39.5679042 80.2925112,39.6140499 79.9701615,39.704472 C79.3830888,39.8689831 78.7858113,40.0748188 78.264169,40.3816045 C75.1219093,42.2309773 71.67891,43.5327011 68.6280928,45.5498319 C66.2428848,47.1261673 63.8642798,48.7184422 61.408339,50.182119 C58.8378449,51.7143748 56.1735072,53.093533 53.5613938,54.5590793 C52.9810242,54.8848546 52.4409734,55.2826527 51.8941193,55.6634291 C50.8393293,56.3981208 49.9243043,56.679915 48.5397611,56.0087844 C45.9635644,54.7605857 43.2253924,53.8113014 40.5046286,52.8800228 C36.6183233,51.5497653 32.7268155,50.2049459 28.762574,49.1339509 C25.2928622,48.1963752 22.0879735,46.7033776 18.8778823,45.20182 C17.0527344,44.347779 15.3420398,43.2584831 13.5699166,42.2926689 C12.5519437,41.7377391 11.5083589,41.2287581 10.4897858,40.6755009 C10.0122639,40.4158449 9.50913022,40.1604197 9.11604762,39.7994201 C7.73080413,38.5269187 6.36857133,37.2287369 5.03805327,35.9005457 C4.50440537,35.367754 4.02038053,35.1272844 3.25672579,35.4637844 C2.70747064,35.7062218 2.07437655,35.7681103 1.47639877,35.9018248 C0.0196220547,36.2274033 -0.419181783,37.0422844 0.430412879,38.2367612 C1.04769963,39.1047738 1.83016311,40.0160789 2.75959485,40.4814722 C5.60161506,41.9044148 8.53867941,43.1474971 11.4614371,44.4101594 C13.4772735,45.2811238 15.5343291,46.0597967 17.564072,46.9002597 C17.9568544,47.0627046 18.300314,47.3363322 18.6820913,47.528885 C19.7633936,48.0740741 20.8410943,48.6279217 21.9424059,49.132475 C23.2690221,49.7401429 24.6139469,50.3103235 25.9592718,50.8780443 C27.5942313,51.5675742 29.2266896,52.2654674 30.8805579,52.9082612 C33.1040908,53.7726334 35.3833496,54.50703 37.5725665,55.4464751 C40.1053431,56.5326225 42.5660862,57.780526 45.0578437,58.9588664 C46.4415865,59.6134673 47.8277304,60.2631485 49.2063708,60.9282772 C49.8172546,61.2233543 50.3233897,61.1505443 50.9208672,60.7870849 C53.8407236,59.0091447 56.7782882,57.257475 59.7426652,55.5514592 C62.2771426,54.0935875 64.8045166,52.6095436 67.4287356,51.3216931 C70.277659,49.9232501 73.2717499,48.8124064 76.1341796,47.4383646 C78.8806554,46.1198157 81.5396906,44.6243584 84.2949705,43.1763259 C83.693391,41.2737232 82.1607791,40.6815028 80.9995397,39.7416641 Z" id="Fill-1" fill="#2C6B38"></path>
                            <path d="M8.15757779,51.3889267 C8.68834144,51.7940482 9.14138895,52.2378205 9.66483581,52.5240334 C15.3756866,55.6457685 21.0164346,58.9169605 26.9188071,61.6156174 C29.5039069,62.7976963 32.0288904,64.0791942 34.7564697,64.8019529 C34.9321715,64.8482682 35.1235944,64.8981966 35.2666673,65.0109737 C37.167252,66.5111278 39.3235288,67.3945117 41.5099626,68.2062876 C42.3581165,68.5211875 43.2208052,68.7911955 44.0590716,69.1345634 C44.7383463,69.4122359 45.3853875,69.7853856 46.0569499,70.0884603 C47.3962184,70.6926389 48.7041434,71.5707671 50.0961126,71.793146 C51.6487545,72.041803 53.3560377,72.2238887 54.793984,71.0175025 C55.0815139,70.776072 55.4023649,70.5282909 55.7426943,70.4284339 C58.8564813,69.516582 61.8593301,68.2682603 64.8319229,66.9046431 C66.3947489,66.187797 68.0265901,65.6563214 69.6281753,65.042836 C70.0297087,64.8893278 70.4325275,64.7401992 70.8368294,64.5965453 C73.2000525,63.7558634 75.5661431,62.9261308 77.924818,62.0712148 C78.3245716,61.9263565 78.8088638,61.7852209 79.0581289,61.4589339 C80.4415948,59.6479312 82.6660956,59.3217536 84.2949705,57.6699527 C83.5619076,56.2215885 82.4344303,55.0577948 81.064016,54.4737628 C80.3633843,54.1750678 79.2858391,54.6170883 78.4881117,55.0016252 C75.0985609,56.6348125 71.7314548,58.3294248 68.3928249,60.0868858 C66.3186148,61.1788526 64.3140131,62.4305686 62.2700589,63.5933769 C61.7329672,63.8992984 61.1658174,64.1404004 60.6127079,64.4117223 C58.7339746,65.3327716 56.8545492,66.2529449 54.9761126,67.1757461 C54.5332493,67.3931978 54.106997,67.6644102 53.6489069,67.8302911 C52.0346656,68.4148705 50.4097457,68.9644123 48.6526293,69.5745035 C47.98344,67.4503528 46.0998618,67.1599792 44.5103394,66.5217485 C40.040475,64.7268412 35.7921905,62.4471019 31.6905384,59.806257 C31.2189023,59.5025254 30.7363899,59.2108379 30.2364754,58.9712687 C27.0188691,57.431369 23.7910787,55.9186233 20.5759442,54.3730299 C19.4135639,53.8144002 18.2849002,53.1704759 17.1268704,52.6003495 C15.1351225,51.619408 13.1386285,50.6491967 11.1309616,49.7103002 C10.471561,49.4021888 9.76994046,49.2042267 8.90418664,48.8888889 C8.6146792,49.8583337 8.40872154,50.5483543 8.15757779,51.3889267 Z" id="Fill-3" fill="#2C6B38"></path>
                            <path d="M83.7781233,71.2500406 C83.5144562,71.3078464 83.3285472,71.3213345 83.1624725,71.389631 C78.9806059,73.1207029 74.7703201,74.776199 70.630589,76.6187078 C67.2155476,78.1388952 63.901651,79.925418 60.5089108,81.507051 C58.788858,82.3094821 56.995389,82.9266134 55.2309312,83.6151456 C54.4398313,83.9240859 53.7806636,83.8624263 53.0739331,83.1721813 C52.5235084,82.6354431 51.7154358,82.3028452 50.9716026,82.1223624 C45.7973334,80.8672255 40.9518586,78.6173994 36.0889178,76.4207762 C33.0132294,75.0318294 29.9459286,73.6187969 26.9014224,72.151384 C24.6957762,71.0880771 22.5571322,69.8619502 20.3468481,68.8110608 C17.8033291,67.6015263 15.2157011,66.501716 12.6441576,65.3615487 C11.9408809,65.0501463 11.3231578,65.0912527 11.0015669,65.976753 C10.7086911,66.7841084 10.9329858,67.4289651 11.6567875,67.7695916 C13.8172393,68.7867609 15.9010184,70.0569915 18.2898106,70.3742815 C19.5322628,70.5397776 20.6069628,71.025347 21.5885109,71.8779836 C22.1466325,72.3624825 22.8109315,72.7351163 23.4739476,73.0390254 C27.6550248,74.9522928 31.8370887,76.8647039 36.0430326,78.7128862 C39.0733293,80.0444552 42.1325385,81.3001273 45.194412,82.5468074 C48.5940596,83.9306158 52.0247908,85.2280366 55.4129918,86.6449228 C56.4734821,87.0884224 57.4548328,86.9281716 58.4200004,86.5594986 C61.562099,85.3586351 64.6862382,84.0986811 67.81018,82.8415103 C69.5674343,82.1340306 71.3163997,81.4012876 73.0591484,80.6530227 C74.5228362,80.0252937 76.0116869,79.4439164 77.4198191,78.6888004 C79.640563,77.4983205 81.7842396,76.138919 83.9995562,74.9355933 C84.8298313,74.4847075 85.7691453,74.2706117 87.0141631,73.8192976 C85.7381604,72.8060891 84.7411199,72.0140415 83.7781233,71.2500406 Z" id="Fill-5" fill="#2C6B38"></path>
                            <path d="M17.5362961,63.6709409 C23.0920146,66.5143187 28.6571488,69.3164006 34.5394781,71.3229551 C35.7249871,71.7273368 36.7574892,72.6272685 37.9227934,73.1303366 C42.117045,74.9411065 46.3349342,76.6891914 50.5539024,78.4318761 C50.9825177,78.6088129 51.5234362,78.7576897 51.9395953,78.6341198 C54.0219599,78.014788 56.1988748,77.6866449 58.0677164,76.363166 C58.5601827,76.0142691 59.164756,75.8416736 59.728037,75.6178289 C61.6477828,74.8560794 63.5632129,74.0814117 65.4970824,73.3644523 C66.6760199,72.9273517 67.8855588,72.5865021 69.3123478,72.1281182 C68.7150325,72.5887257 68.1627366,73.0143906 67.6353533,73.4214194 C68.8261587,72.9061743 70.0228489,72.4071299 71.2223835,71.9162388 C72.6189634,71.0898983 74.0490872,70.32889 75.6350622,69.8680707 C77.7709792,69.2476801 79.8537361,68.2622977 81.8104585,67.1358741 C82.8930801,66.5127304 83.7080378,66.495259 84.6221558,67.1523924 C85.3502134,67.6757908 86.0231494,68.2887694 87.0141631,69.1030387 C84.3905858,70.365421 82.1329499,71.5543178 79.8028319,72.5452063 C77.338931,73.5932736 74.7682195,74.3508936 72.3117727,75.4164323 C67.2824567,77.598653 62.2767783,79.8481118 57.3075861,82.1839742 C55.5323142,83.0188915 53.9872391,83.2916559 52.5766335,81.5648542 C52.5003262,81.471568 52.3823344,81.3972354 52.2708159,81.3619751 C49.3134679,80.4302773 46.8734007,78.3015294 43.8856474,77.3434658 C40.0835249,76.1243913 36.4411769,74.3351164 32.6760311,72.9646238 C30.5161822,72.1782027 28.2885592,71.6738639 26.2185529,70.5388635 C24.1920947,69.4275817 21.9768299,68.7223757 19.9223204,67.6626608 C16.9335863,66.1202081 14.0140977,64.4211487 11.0697944,62.7789506 C10.9790692,62.7283367 10.9391501,62.570989 10.8767704,62.4658434 C11.4693777,60.8779652 11.4647679,60.890354 12.7138336,61.4678605 C14.3185421,62.2099151 15.9605215,62.8647189 17.5362961,63.6709409 Z" id="Fill-7" fill="#2C6B38"></path>
                            <path d="M13.6870741,71.9951964 C16.0688396,72.6025711 18.491037,73.1256482 20.5070608,74.6897705 C20.8818851,74.9799977 21.314232,75.2149108 21.7513643,75.4009942 C24.4543382,76.5493272 27.1784068,77.6487323 29.8728841,78.8169115 C34.3906016,80.7754049 38.8801926,82.7882299 43.6497788,84.099656 C45.1384311,84.5087644 46.5009049,85.3623508 47.9683647,85.8739327 C49.8762773,86.5396672 51.8551897,87.0009457 53.7588052,87.6785683 C55.0093591,88.1242253 56.19155,88.1389626 57.4510887,87.8106148 C60.2452783,87.0816081 62.7450188,85.3630385 65.7416604,85.3247214 C67.0042266,84.2494856 68.7153516,84.2725741 70.1197221,83.4998466 C71.5894281,82.690767 73.1607996,82.0640373 74.7055096,81.4001696 C75.4200978,81.0928471 76.1914274,80.9217957 76.9123636,80.6278351 C78.5167447,79.973694 80.1183912,79.3084507 81.695427,78.5904479 C82.3470237,78.2937362 82.9037912,77.7827437 83.559099,77.4985097 C83.9568738,77.3254934 84.5414748,77.226655 84.9012593,77.3961344 C85.8008182,77.8210608 86.5511505,78.4814898 87.0141631,79.3966782 C84.8793831,80.4838022 82.846171,81.3835655 80.951638,82.5177507 C78.2650713,84.125692 75.6121001,85.7618307 72.5743431,86.6388003 C72.0011685,86.804055 71.4261383,87.0277677 70.9144904,87.331455 C67.7575865,89.2035876 64.1888446,89.85036 60.7374916,90.8499442 C59.7513071,91.135259 58.8628816,90.9752115 57.9310944,90.3885674 C58.1668489,90.0204288 58.3765279,89.6933583 58.5716553,89.3890815 C57.5818573,89.5022642 56.6952874,89.8590059 55.9842149,89.6393214 C53.4099588,88.8438984 50.8983036,87.843823 48.3553967,86.9436666 C46.9983919,86.4636226 45.6301561,86.0138391 44.2577208,85.5810528 C42.4844833,85.0222131 40.6991357,84.5016905 38.9235543,83.9502195 C36.917492,83.3272233 34.912211,82.7014761 32.9143523,82.0533282 C30.3465418,81.2206689 27.7686722,80.4157157 25.2278162,79.5060292 C22.120915,78.3933606 19.0507344,77.1767446 15.9591659,76.0199622 C14.2987273,75.3983415 12.6267645,74.8070796 10.8767704,74.1719006 C11.5503409,73.4333637 12.020971,72.8256943 12.5899462,72.3333691 C12.8614448,72.098456 13.362936,71.9127656 13.6870741,71.9951964 Z" id="Fill-9" fill="#2C6B38"></path>
                            <path d="M18.1641458,48.4301537 C20.2507467,49.0967568 22.3418395,49.7486908 24.4462081,50.3515883 C25.237168,50.5780154 26.0250335,50.8048616 26.8103038,51.034432 C32.7522853,53.5886261 38.6658186,56.2157462 44.541421,58.9262702 C44.9482802,59.1139291 45.171374,59.4084625 45.2544228,59.7356868 C46.0863082,60.0905728 46.9191918,60.4424202 47.7504783,60.7986683 C48.0864666,60.9421105 48.3976999,61.1629843 48.6982527,61.3819721 C49.9303095,62.2792982 51.8859489,62.280346 53.1961634,61.4570986 C57.652949,58.6562551 62.0509416,55.7387928 66.6144329,53.1426873 C70.6443956,50.8504404 74.8957552,48.9908254 78.9877051,46.8122635 C80.620632,45.9429134 81.9356378,45.8100538 83.2144096,47.3672771 C83.5581837,47.7861829 84.1629825,47.9559247 84.5903045,48.3161544 C84.9394688,48.6104781 85.2023901,49.0179631 85.6545668,49.5539069 C84.6653678,49.9995314 83.8980648,50.3694007 83.1134933,50.6936912 C81.8043768,51.2347692 80.452039,51.6723257 79.1750639,52.2853867 C76.0080301,53.8057278 72.869744,55.392394 69.728064,56.9704682 C68.2397737,57.717751 66.7973998,58.5728512 65.284654,59.2589431 C63.1043237,60.2476363 61.0916881,61.5986548 58.7691168,62.303083 C57.446425,62.7041764 56.306201,63.7275515 55.0043712,64.2543795 C53.0855648,65.030686 51.2308416,65.7577464 49.0584968,64.5196796 C47.3141727,63.5255378 45.5381063,62.5947873 43.7656334,61.6554449 C43.5643,61.6582739 43.3520864,61.6178293 43.1362793,61.5193372 C34.8712274,57.7625963 26.5532718,54.1533841 18.1856067,50.6628862 C16.6356287,49.787459 15.0576018,48.9591822 13.595963,47.9284726 C13.7256269,47.8651862 13.8565885,47.8051479 13.9844557,47.7370417 C15.2627283,47.0584938 16.8468441,48.0089428 18.1641458,48.4301537 Z" id="Fill-11" fill="#2C6B38"></path>
                            <path d="M38.0037277,91.5231811 C39.8003851,91.8687473 41.5527176,92.3540495 43.2524595,92.9707111 C43.5223353,93.0561361 43.7944841,93.1358538 44.0633266,93.2245927 C44.1335852,93.2476979 44.1803898,93.2877409 44.2076667,93.3336752 C45.1693832,93.551196 46.066317,93.7442307 46.9634576,93.9369892 C47.0134652,93.8952893 47.0841371,93.8724602 47.1765065,93.8944608 C47.6786489,94.0141294 48.1762452,94.1458569 48.6713618,94.2840282 C50.6173188,94.5859613 52.5395119,95.0038809 54.4268856,95.5425738 C54.4686275,95.5543565 54.4994173,95.5739638 54.524731,95.5963326 C56.4413447,96.0047708 58.3397738,96.4807757 60.2181585,97.018364 C60.5441378,96.8944609 60.868774,96.7172593 61.1932035,96.4721228 C61.4179277,96.3027457 61.7839958,96.2843351 62.0830082,96.19173 C66.0228633,94.9700975 70.0754422,94.1235802 73.8754001,92.4285202 C76.8068374,91.1208184 79.8919139,90.0488638 82.7706573,88.6066729 C83.8165808,88.0829846 84.0863532,88.1403335 84.8333676,89.0126256 C85.1332065,89.3634388 85.3451189,89.773626 85.6545668,90.2441077 C84.7816035,91.2466546 83.6664546,91.2378175 82.6301401,91.4570872 C81.3466805,91.7283668 80.0879148,92.0986951 78.8306988,92.4598182 C77.1481083,92.9431873 75.5049866,93.5578238 73.7946026,93.9356084 C71.4374261,94.4560748 69.1865674,95.1206959 67.075916,96.2343504 C64.4610556,97.6137614 61.7379144,98.830423 59.0803823,100.147422 C58.230253,100.568932 57.5165082,100.644415 56.6112052,100.15718 C55.4794216,99.5482506 54.2122868,99.1376031 52.9984659,98.6520247 C49.1789803,97.1240406 45.3537087,95.6076551 41.5401124,94.0682564 C41.336879,93.9863295 41.1455276,93.8818496 40.9572759,93.7713862 C39.8968874,93.4492015 38.8424916,93.1084221 37.7919186,92.761291 C37.6145156,92.7118587 37.4358728,92.6684098 37.259193,92.6168602 C37.2099087,92.6025 37.1753993,92.5769093 37.1478125,92.5477286 C36.9035605,92.4667221 36.6592051,92.3852554 36.4150564,92.3036967 C36.1838229,92.2265564 36.1778303,91.8720612 36.4562817,91.8745466 C36.1251363,91.7298396 35.7964707,91.5797015 35.4727644,91.4185171 C35.2231397,91.2941538 35.3870076,90.9585294 35.6588464,91.0125644 C36.4446064,91.168962 37.2256135,91.3411007 38.0037277,91.5231811 Z" id="Fill-13" fill="#2C6B38"></path>
                            <path d="M51.0474163,91.1391916 C49.297636,90.5690787 47.5371445,90.0251143 45.786758,89.4567821 C45.1432722,89.2479688 44.529495,88.9549928 43.8784304,88.7739213 C39.2505467,87.4858954 34.647117,86.1096768 29.9759839,84.9735748 C25.6331619,83.918074 21.5462994,82.2705293 17.396988,80.754477 C16.8777936,80.5649705 16.3747671,80.3300086 15.8429415,80.180709 C14.9780553,79.9381556 13.9213764,80.4960846 13.6500574,81.2922557 C13.4257266,81.9510299 13.9039958,82.6093355 14.9941222,82.8154309 C16.0016909,83.0056872 17.0544288,82.9908791 18.0870579,83.0639825 C18.6294938,83.1027835 19.2105308,83.0332416 19.7077974,83.1918197 C21.2875106,83.693984 22.81488,84.3385124 24.4004541,84.8209012 C26.6932765,85.5183827 29.0112604,86.1485716 31.3335894,86.7573918 C33.2424222,87.257869 35.2725149,87.4733366 37.0719106,88.1945299 C40.2549828,89.3612791 42.9754484,89.4421615 45.2131987,90.3023449 C46.8265615,90.8782686 48.4945924,91.326355 50.1532256,91.78372 C51.0248821,92.0243052 51.929683,92.1617021 52.8196296,92.345679 C52.8875351,92.1837268 52.956249,92.0221496 53.0242556,91.8601974 C52.3659155,91.6187687 51.7152551,91.3565336 51.0474163,91.1391916 Z" id="Fill-15" fill="#2C6B38"></path>
                            <path d="M75.2958674,26.1773382 C73.2861122,25.0280722 71.1560329,24.0718038 69.1624481,22.8987037 C66.2729605,21.1989294 63.4499626,19.3923864 60.6194319,17.601442 C60.1148337,17.2818139 59.7052494,16.8197628 59.2624203,16.4130339 C58.8643863,16.0469972 58.4903569,15.656739 58.0887072,15.2944809 C57.0622355,14.3674722 55.9303045,13.5298896 55.0187333,12.508126 C53.965244,11.3272751 52.9196892,10.1836285 51.5329481,9.34982444 C51.074049,9.07418274 50.5793941,8.70146092 50.3471825,8.25423348 C49.3544578,6.34344068 47.7022603,4.98519079 46.2585711,3.44285682 C45.3275151,2.44802767 44.5442028,1.32463032 43.4883029,0 C41.3672629,0.880503243 39.049968,1.82843939 36.7443238,2.80253486 C32.5083706,4.59241348 28.2754305,6.39052745 24.0486171,8.200074 C21.9635337,9.0929787 19.9592022,10.2098847 17.8044152,10.8914802 C13.2705642,12.324817 9.08322277,14.5036944 4.70856528,16.2741957 C3.91541003,16.5950834 3.15901492,17.0115978 2.41286444,17.4294687 C1.3987466,17.9974165 1.13760899,18.4356335 1.5405644,19.4700892 C2.8649338,22.8712849 4.27346986,26.2517469 6.85300719,28.9951811 C8.58836701,30.840188 10.4088979,32.6114645 12.2051228,34.4024089 C12.4570202,34.6531508 12.7711888,34.8582592 13.0866631,35.0353674 C14.8963467,36.0523836 16.6737898,37.1349918 18.5413255,38.0439796 C21.563491,39.5145208 24.558438,41.1048135 27.7261376,42.215325 C32.3530942,43.8367182 37.1593318,44.9757143 41.8168214,46.5230863 C44.2496194,47.3315061 46.5307569,48.5683574 48.8741655,49.6244187 C49.2038015,49.7726548 49.4970792,49.995009 49.9126897,50.2469136 C53.3389155,48.4376577 56.8179714,46.6863398 60.2053279,44.7833948 C62.6951745,43.3844527 65.063793,41.7857308 67.4882548,40.2786635 C68.8785112,39.4146309 70.2664576,38.5475949 71.667963,37.7007112 C72.0310447,37.4816512 72.4238559,37.2804182 72.8312306,37.1625075 C74.1276783,36.7879448 75.4314581,36.4897286 76.3937501,35.4272728 C76.6843159,35.1070634 77.2836267,35.0561011 77.7277615,34.8545775 C79.8300197,33.8996655 81.927959,32.9360338 84.2949705,31.8529412 C83.6354976,31.3297548 83.2646822,30.9677874 82.830792,30.7028032 C80.3301986,29.1771337 77.8402516,27.6325713 75.2958674,26.1773382 Z" id="Fill-21" fill="#2C6B38"></path>
                            <path d="M178.890473,65.5441333 C178.675773,65.3703733 178.183445,65.4165191 177.861095,65.5069411 C177.274022,65.6714523 176.676745,65.877288 176.155102,66.1840737 C173.012843,68.0334464 169.569843,69.3351702 166.519026,71.352301 C164.133818,72.9286364 161.755213,74.5209113 159.299272,75.9845881 C156.728778,77.516844 154.064441,78.8960022 151.452327,80.3615484 C150.871958,80.6873237 150.331907,81.0851219 149.785053,81.4658982 C148.730263,82.20059 147.815238,82.4823842 146.430695,81.8112535 C143.854498,80.5630548 141.116326,79.6137705 138.395562,78.6824919 C134.509257,77.3522344 130.617749,76.007415 126.653508,74.93642 C123.183796,73.9988443 119.978907,72.5058468 116.768816,71.0042891 C114.943668,70.1502481 113.232973,69.0609522 111.46085,68.0951381 C110.442877,67.5402082 109.399292,67.0312273 108.380719,66.4779701 C107.903197,66.218314 107.400064,65.9628889 107.006981,65.6018893 C105.621738,64.3293878 104.259505,63.0312061 102.928987,61.7030148 C102.395339,61.1702231 101.911314,60.9297535 101.147659,61.2662535 C100.598404,61.508691 99.96531,61.5705794 99.3673323,61.7042939 C97.9105555,62.0298725 97.4717517,62.8447536 98.3213464,64.0392303 C98.9386331,64.907243 99.7210966,65.8185481 100.650528,66.2839414 C103.492549,67.7068839 106.429613,68.9499662 109.352371,70.2126285 C111.368207,71.0835929 113.425263,71.8622658 115.455005,72.7027288 C115.847788,72.8651737 116.191247,73.1388014 116.573025,73.3313542 C117.654327,73.8765433 118.732028,74.4303908 119.833339,74.9349441 C121.159956,75.542612 122.50488,76.1127926 123.850205,76.6805135 C125.485165,77.3700434 127.117623,78.0679366 128.771491,78.7107304 C130.995024,79.5751025 133.274283,80.3094991 135.4635,81.2489442 C137.996277,82.3350916 140.45702,83.5829951 142.948777,84.7613356 C144.33252,85.4159364 145.718664,86.0656176 147.097304,86.7307463 C147.708188,87.0258234 148.214323,86.9530135 148.811801,86.5895541 C151.731657,84.8116138 154.669222,83.0599442 157.633599,81.3539283 C160.168076,79.8960567 162.69545,78.4120128 165.319669,77.1241622 C168.168593,75.7257192 171.162683,74.6148755 174.025113,73.2408337 C176.771589,71.9222849 179.430624,70.4268275 182.185904,68.978795 C181.584325,67.0761923 180.051713,66.483972 178.890473,65.5441333 Z" id="Fill-1" fill="#2C6B38" transform="translate(140.038419, 74.012346) scale(-1, 1) translate(-140.038419, -74.012346) "></path>
                            <path d="M103.42043,71.9951964 C105.802195,72.6025711 108.224393,73.1256482 110.240416,74.6897705 C110.615241,74.9799977 111.047588,75.2149108 111.48472,75.4009942 C114.187694,76.5493272 116.911763,77.6487323 119.60624,78.8169115 C124.123957,80.7754049 128.613548,82.7882299 133.383134,84.099656 C134.871787,84.5087644 136.234261,85.3623508 137.70172,85.8739327 C139.609633,86.5396672 141.588545,87.0009457 143.492161,87.6785683 C144.742715,88.1242253 145.924906,88.1389626 147.184444,87.8106148 C149.978634,87.0816081 152.478375,85.3630385 155.475016,85.3247214 C156.737582,84.2494856 158.448707,84.2725741 159.853078,83.4998466 C161.322784,82.690767 162.894155,82.0640373 164.438865,81.4001696 C165.153454,81.0928471 165.924783,80.9217957 166.645719,80.6278351 C168.2501,79.973694 169.851747,79.3084507 171.428783,78.5904479 C172.080379,78.2937362 172.637147,77.7827437 173.292455,77.4985097 C173.690229,77.3254934 174.27483,77.226655 174.634615,77.3961344 C175.534174,77.8210608 176.284506,78.4814898 176.747519,79.3966782 C174.612739,80.4838022 172.579527,81.3835655 170.684994,82.5177507 C167.998427,84.125692 165.345456,85.7618307 162.307699,86.6388003 C161.734524,86.804055 161.159494,87.0277677 160.647846,87.331455 C157.490942,89.2035876 153.9222,89.85036 150.470847,90.8499442 C149.484663,91.135259 148.596237,90.9752115 147.66445,90.3885674 C147.900205,90.0204288 148.109884,89.6933583 148.305011,89.3890815 C147.315213,89.5022642 146.428643,89.8590059 145.717571,89.6393214 C143.143314,88.8438984 140.631659,87.843823 138.088752,86.9436666 C136.731748,86.4636226 135.363512,86.0138391 133.991077,85.5810528 C132.217839,85.0222131 130.432491,84.5016905 128.65691,83.9502195 C126.650848,83.3272233 124.645567,82.7014761 122.647708,82.0533282 C120.079897,81.2206689 117.502028,80.4157157 114.961172,79.5060292 C111.854271,78.3933606 108.78409,77.1767446 105.692522,76.0199622 C104.032083,75.3983415 102.36012,74.8070796 100.610126,74.1719006 C101.283697,73.4333637 101.754327,72.8256943 102.323302,72.3333691 C102.594801,72.098456 103.096292,71.9127656 103.42043,71.9951964 Z" id="Fill-9" fill="#2C6B38" transform="translate(138.678822, 81.481481) scale(-1, 1) translate(-138.678822, -81.481481) "></path>
                            <path d="M103.192614,91.5231811 C104.940713,91.8687473 106.645686,92.3540495 108.299488,92.9707111 C108.56207,93.0561361 108.826864,93.1358538 109.08844,93.2245927 C109.1568,93.2476979 109.20234,93.2877409 109.228879,93.3336752 C110.164603,93.551196 111.037296,93.7442307 111.910189,93.9369892 C111.958845,93.8952893 112.027607,93.8724602 112.11748,93.8944608 C112.606051,94.0141294 113.090199,94.1458569 113.571934,94.2840282 C115.465297,94.5859613 117.335539,95.0038809 119.171903,95.5425738 C119.212517,95.5543565 119.242474,95.5739638 119.267104,95.5963326 C121.131917,96.0047708 122.979037,96.4807757 124.806655,97.018364 C125.123824,96.8944609 125.439686,96.7172593 125.755347,96.4721228 C125.973998,96.3027457 126.330172,96.2843351 126.621103,96.19173 C130.454476,94.9700975 134.397526,94.1235802 138.094782,92.4285202 C140.946991,91.1208184 143.948687,90.0488638 146.749627,88.6066729 C147.767282,88.0829846 148.029763,88.1403335 148.756588,89.0126256 C149.048323,89.3634388 149.254508,89.773626 149.555593,90.2441077 C148.706223,91.2466546 147.621213,91.2378175 146.612907,91.4570872 C145.364136,91.7283668 144.139391,92.0986951 142.916154,92.4598182 C141.279039,92.9431873 139.680326,93.5578238 138.016168,93.9356084 C135.722699,94.4560748 133.532674,95.1206959 131.479068,96.2343504 C128.934879,97.6137614 126.285336,98.830423 123.699629,100.147422 C122.872477,100.568932 122.178022,100.644415 121.297187,100.15718 C120.195992,99.5482506 118.963104,99.1376031 117.782089,98.6520247 C114.065833,97.1240406 110.343947,95.6076551 106.633421,94.0682564 C106.43568,93.9863295 106.249501,93.8818496 106.066337,93.7713862 C105.034607,93.4492015 104.008709,93.1084221 102.98653,92.761291 C102.813921,92.7118587 102.640107,92.6684098 102.468202,92.6168602 C102.42025,92.6025 102.386673,92.5769093 102.359832,92.5477286 C102.122181,92.4667221 101.88443,92.3852554 101.64688,92.3036967 C101.421896,92.2265564 101.416065,91.8720612 101.686991,91.8745466 C101.364796,91.7298396 101.045013,91.5797015 100.730055,91.4185171 C100.487177,91.2941538 100.646616,90.9585294 100.911108,91.0125644 C101.675631,91.168962 102.43553,91.3411007 103.192614,91.5231811 Z" id="Fill-13" fill="#2C6B38" transform="translate(125.082859, 94.382716) scale(-1, 1) translate(-125.082859, -94.382716) "></path>
                            <path d="M170.691891,91.1391916 C168.94211,90.5690787 167.181619,90.0251143 165.431232,89.4567821 C164.787746,89.2479688 164.173969,88.9549928 163.522905,88.7739213 C158.895021,87.4858954 154.291591,86.1096768 149.620458,84.9735748 C145.277636,83.918074 141.190774,82.2705293 137.041462,80.754477 C136.522268,80.5649705 136.019241,80.3300086 135.487416,80.180709 C134.62253,79.9381556 133.565851,80.4960846 133.294532,81.2922557 C133.070201,81.9510299 133.54847,82.6093355 134.638596,82.8154309 C135.646165,83.0056872 136.698903,82.9908791 137.731532,83.0639825 C138.273968,83.1027835 138.855005,83.0332416 139.352272,83.1918197 C140.931985,83.693984 142.459354,84.3385124 144.044928,84.8209012 C146.337751,85.5183827 148.655735,86.1485716 150.978064,86.7573918 C152.886896,87.257869 154.916989,87.4733366 156.716385,88.1945299 C159.899457,89.3612791 162.619923,89.4421615 164.857673,90.3023449 C166.471036,90.8782686 168.139067,91.326355 169.7977,91.78372 C170.669356,92.0243052 171.574157,92.1617021 172.464104,92.345679 C172.532009,92.1837268 172.600723,92.0221496 172.66873,91.8601974 C172.01039,91.6187687 171.359729,91.3565336 170.691891,91.1391916 Z" id="Fill-15" fill="#2C6B38" transform="translate(152.954584, 86.234568) scale(-1, 1) translate(-152.954584, -86.234568) "></path>
                            <path d="M173.186801,53.337832 C171.177046,52.188566 169.046966,51.2322976 167.053382,50.0591976 C164.163894,48.3594233 161.340896,46.5528802 158.510365,44.7619358 C158.005767,44.4423077 157.596183,43.9802567 157.153354,43.5735277 C156.75532,43.207491 156.38129,42.8172328 155.979641,42.4549747 C154.953169,41.527966 153.821238,40.6903834 152.909667,39.6686198 C151.856177,38.4877689 150.810623,37.3441223 149.423882,36.5103183 C148.964982,36.2346766 148.470328,35.8619547 148.238116,35.4147273 C147.245391,33.5039345 145.593194,32.1456846 144.149505,30.6033506 C143.218449,29.6085215 142.435136,28.4851241 141.379236,27.1604938 C139.258196,28.0409971 136.940901,28.9889332 134.635257,29.9630287 C130.399304,31.7529073 126.166364,33.5510213 121.939551,35.3605678 C119.854467,36.2534725 117.850136,37.3703785 115.695349,38.051974 C111.161498,39.4853108 106.974156,41.6641882 102.599499,43.4346896 C101.806344,43.7555772 101.049948,44.1720916 100.303798,44.5899625 C99.2896801,45.1579104 99.0285425,45.5961274 99.4314979,46.630583 C100.755867,50.0317787 102.164403,53.4122407 104.743941,56.1556749 C106.4793,58.0006819 108.299831,59.7719583 110.096056,61.5629027 C110.347954,61.8136446 110.662122,62.018753 110.977597,62.1958613 C112.78728,63.2128774 114.564723,64.2954856 116.432259,65.2044734 C119.454425,66.6750146 122.449372,68.2653073 125.617071,69.3758188 C130.244028,70.997212 135.050265,72.1362081 139.707755,73.6835801 C142.140553,74.4919999 144.42169,75.7288512 146.765099,76.7849125 C147.094735,76.9331487 147.388013,77.1555029 147.803623,77.4074074 C151.229849,75.5981515 154.708905,73.8468337 158.096261,71.9438887 C160.586108,70.5449465 162.954726,68.9462247 165.379188,67.4391573 C166.769445,66.5751248 168.157391,65.7080887 169.558896,64.8612051 C169.921978,64.642145 170.314789,64.440912 170.722164,64.3230013 C172.018612,63.9484387 173.322392,63.6502224 174.284684,62.5877666 C174.575249,62.2675572 175.17456,62.216595 175.618695,62.0150713 C177.720953,61.0601594 179.818892,60.0965276 182.185904,59.013435 C181.526431,58.4902486 181.155616,58.1282812 180.721726,57.863297 C178.221132,56.3376275 175.731185,54.7930651 173.186801,53.337832 Z" id="Fill-21" fill="#2C6B38" transform="translate(140.718217, 52.283951) scale(-1, 1) translate(-140.718217, -52.283951) "></path>
                            <path d="M38.2103987,36.8605211 C37.9816059,37.387936 37.7016265,37.8942384 37.4530775,38.4138229 C37.3586867,38.6109716 37.2976221,38.8224926 37.2150052,39.0249938 C37.1643176,39.1491905 37.1013571,39.2686295 37.0475764,39.382716 C36.3520182,39.2917243 35.5877125,39.0311392 34.8364778,38.6268307 C34.868407,38.5086802 34.8920546,38.3771487 34.9391502,38.2543396 C35.2135419,37.5391924 35.5806282,36.867063 36.0207526,36.2335902 C36.1583475,36.0355494 36.1995562,35.8467268 36.1019725,35.6011087 C35.8910401,35.5120993 35.6689325,35.409808 35.4405387,35.3233758 C34.5976073,35.0045083 33.651305,34.1940081 33.224551,33.4414929 C32.9546493,32.9659175 32.752697,32.4754742 32.6424414,31.9591606 C32.6131064,31.8218801 32.6359558,31.7125513 32.7221647,31.5827048 C33.1005259,31.0140562 33.6576909,30.5959701 34.1462079,30.1211876 C34.4040364,29.8706135 34.7048695,29.6566145 35.0116894,29.4052475 C35.1258364,29.6728701 35.2068568,29.9227504 35.3353719,30.153005 C35.7195203,30.8410926 36.2435587,31.4054791 37.0917784,31.6374187 C37.7847423,31.8269352 38.3499893,31.6496104 38.8014884,31.1998061 C39.1042173,30.8982846 39.416525,30.6014216 39.6834334,30.2738317 C40.1186686,29.7397758 40.3623284,29.1441667 40.1577818,28.4268388 C39.9210067,27.5965147 39.692613,26.7644065 39.4812815,25.9300184 C39.4243078,25.7051163 39.4329885,25.4687163 39.4283987,25.2383625 C39.4234098,24.9854096 39.4430662,24.733646 39.4425673,24.4807922 C39.4413699,23.6931886 39.5407496,22.9216423 39.836993,22.1998541 C40.0788568,21.6103904 40.368814,21.0333166 40.8802803,20.5962987 C41.0919111,20.4155047 41.3209035,20.2379817 41.5780335,20.1163621 C42.3430377,19.7543776 43.1287959,19.4351137 44.067515,19.5741784 C44.3057868,19.6094649 44.3459977,19.5711057 44.4119515,19.373164 C44.6058217,18.7904404 44.8468873,18.2189174 44.9780965,17.6211276 C45.082066,17.1472373 45.3643403,16.7691955 45.5471351,16.2962963 C45.7139652,16.3519023 45.8761058,16.3824311 46.0128028,16.4554822 C46.7716207,16.8611784 47.5843192,17.1404971 48.3918291,17.4328006 C48.5328166,17.4838471 48.6731056,17.5367769 48.8516099,17.6029887 C48.7840596,17.7252031 48.7460439,17.821349 48.6840813,17.9017349 C48.3158974,18.3793918 47.9452191,18.8555619 47.5677559,19.3269743 C47.4827443,19.4331313 47.3678989,19.5188697 47.2667232,19.6139253 C47.2213238,19.6565467 47.1551705,19.6910403 47.133718,19.7429789 C47.057487,19.9279359 47.3558257,20.4224431 47.5740419,20.4901417 C48.0978807,20.6527968 48.5756217,20.8739324 48.9339274,21.2940009 C49.3452157,21.7761182 49.7785551,22.2434667 50.2092005,22.7121037 C50.3203541,22.8331286 50.3401103,22.934627 50.2406308,23.0518854 C50.1720828,23.1325686 50.1138119,23.2205868 50.0496542,23.3044419 C49.7472246,23.6994331 49.4450943,24.0946226 49.1409685,24.4884244 C49.0976645,24.5446251 49.0440832,24.594284 48.9770319,24.6667403 C48.8367429,24.5542397 48.6928618,24.4686005 48.5920852,24.352928 C48.1300095,23.8227377 47.5633656,23.4125812 46.9242823,23.08063 C46.6344248,22.9299684 46.3539466,22.7578969 46.0527143,22.6330063 C45.1994059,22.2791497 44.1842562,22.5010783 43.6393641,23.2059171 C43.4792191,23.4128786 43.2331645,23.5619543 43.0681304,23.7663388 C42.4830274,24.4907041 42.2165182,25.287724 42.557163,26.2371898 C42.8282621,26.992976 43.0489728,27.7607557 43.297921,28.5219935 C43.4021898,28.8407619 43.5382882,29.1533848 43.6309827,29.4740364 C43.8695538,30.2996028 43.8251522,31.1091118 43.6305836,31.911385 C43.502268,32.4403858 43.4053828,32.97801 43.1330864,33.4597308 C43.0351036,33.6330909 42.9386175,33.8087306 42.8218762,33.9709893 C42.1868839,34.853252 41.3404602,35.5006015 40.2114629,35.8327509 C40.0380473,35.8837975 39.8743102,35.9578398 39.704786,36.0185009 C39.5682886,36.0674659 39.4527447,36.0547786 39.3191409,35.9536767 C39.1769561,35.846033 38.9977533,35.7796229 38.7915105,35.6728712 C38.6426405,35.8407796 38.5045466,35.9965955 38.3573729,36.1626207 C38.5216088,36.44075 38.3041908,36.6445397 38.2103987,36.8605211 Z" id="Fill-24" fill="#91C94A"></path>
                            <path d="M117.730606,15.1727838 C117.306751,15.4624753 116.882896,15.7199788 116.491645,16.0096703 C116.165603,16.2671739 115.806957,16.4924895 115.44831,16.7178051 C114.6006,17.2650001 113.720286,17.7800072 113.002993,18.488142 C112.676951,18.8100215 112.2857,19.067525 111.927054,19.3250286 C111.601011,19.5503442 111.372782,19.8400357 111.209761,20.1619151 C111.079344,20.4194187 111.046739,20.7091102 111.014135,20.9988017 C110.916322,21.8035003 111.144552,22.511635 111.470594,23.2197698 C111.796637,23.8635287 112.122679,24.5072876 112.481325,25.1510465 C112.546534,25.2797982 112.611742,25.40855 112.644347,25.5373018 C112.90518,26.0201209 113.13341,26.5351281 113.394244,27.0179472 C113.622473,27.4363905 113.818099,27.8548338 114.013724,28.3376529 C113.915911,28.305465 113.850703,28.3376529 113.818099,28.305465 C112.970389,27.6295182 111.992262,27.0823231 111.046739,26.567316 C110.916322,26.5029401 110.785906,26.4385642 110.688093,26.3741883 C109.74257,25.7626174 108.797048,25.1188585 107.884129,24.5072876 C107.688504,24.3785358 107.525483,24.249784 107.362462,24.1210322 C106.971211,23.8313407 106.514752,23.6060251 106.058293,23.4128975 C105.699646,23.2519578 105.308395,23.3163336 104.949749,23.4128975 C104.721519,23.4772734 104.49329,23.5738372 104.297664,23.702589 C103.775997,24.0244684 103.254329,24.3463479 102.79787,24.7647911 C102.537036,24.9901067 102.243598,25.1832344 101.982764,25.440738 C101.591513,25.8269933 101.200263,26.2132486 100.809012,26.5995039 C100.287344,27.114511 99.7982808,27.6295182 99.2766132,28.1445253 C99.1788005,28.2410891 99.0809878,28.3376529 98.9505709,28.4020288 C98.1354652,28.884848 97.4507764,29.4964189 96.7334834,30.0758019 C96.4400453,30.3011175 96.1792115,30.5264331 95.9835862,30.8161246 C95.820565,31.0736282 95.5597312,31.2345679 95.2336889,31.2345679 C95.2336889,31.170192 95.2336889,31.1058161 95.2336889,31.0736282 C95.3641058,30.5586211 95.527127,30.011426 95.6575439,29.4964189 C95.7553566,29.2067274 95.8531692,28.884848 95.9183777,28.5951565 C96.1140031,27.9835855 96.2770242,27.3398267 96.4726496,26.7282557 C96.6030665,26.3098124 96.7986919,25.9235571 96.8639003,25.5051138 C96.8965045,25.2476103 97.0269214,25.0222947 97.1573384,24.7969791 C97.3203595,24.5394755 97.4507764,24.2175961 97.5159849,23.9279046 C97.6137975,23.4772734 97.7442145,23.0266421 97.9398398,22.5760109 C98.2006736,21.9966279 98.1680694,21.385057 98.102861,20.7734861 C98.0702567,20.3228548 97.7116102,19.9687874 97.4181722,19.6147201 C97.3203595,19.4859683 97.1899426,19.3894045 97.0595257,19.2928406 C96.1792115,18.6168938 95.2662931,17.908759 94.385979,17.2328122 C94.2555621,17.1362484 94.0925409,17.0396845 93.9295198,16.9431207 C93.668686,16.782181 93.4404564,16.6212413 93.1796226,16.4603015 C92.6253507,16.1062341 92.0710788,15.7843547 91.4842027,15.4624753 C91.3537858,15.3980994 91.2559731,15.3337235 91.092952,15.2693476 C91.3211816,15.1405958 91.5494112,15.1727838 91.7776408,15.1405958 C93.0166014,15.0762199 94.2881663,14.9152802 95.4945227,14.6899646 C95.6249397,14.6577767 95.7879608,14.6577767 95.9183777,14.6255887 C96.1140031,14.5934008 96.3096284,14.5612128 96.5052538,14.464649 C97.1573384,14.1105816 97.8094229,13.8208901 98.3636948,13.305883 C98.8527582,12.8230638 99.3418216,12.4046206 99.8634893,11.9539894 C100.222136,11.6321099 100.515574,11.2136666 100.809012,10.8274113 C101.656722,9.66864532 102.210994,8.38112755 102.863078,7.12579773 C102.993495,6.83610623 103.156516,6.57860268 103.319537,6.28891118 C103.449954,6.03140763 103.612975,5.77390408 103.743392,5.51640052 C103.775997,5.45202464 103.808601,5.3554608 103.841205,5.29108491 C104.26506,4.67951398 104.525894,4.00356715 104.88454,3.35980827 C104.982353,3.19886854 105.047561,3.00574088 105.145374,2.84480116 C105.177978,2.81261322 105.243187,2.78042527 105.308395,2.71604938 C105.504021,3.32762032 105.667042,3.93919126 105.862667,4.5507622 C106.058293,5.22670903 106.286522,5.90265585 106.514752,6.57860268 C106.547356,6.67516651 106.612564,6.80391829 106.645169,6.90048212 C106.971211,8.22018783 107.525483,9.47551765 107.916734,10.7630354 C108.079755,11.2780425 108.307984,11.7608617 108.666631,12.179305 C108.960069,12.5333723 109.286111,12.8230638 109.709966,13.0161915 C110.133821,13.2093192 110.525072,13.4346348 110.981531,13.4990107 C111.177156,13.5311986 111.372782,13.5633866 111.568407,13.5633866 C111.959658,13.5633866 112.318304,13.6277625 112.676951,13.7243263 C114.144141,14.0462057 115.643936,14.3680852 117.111126,14.5934008 C117.404564,14.6255887 117.795815,14.6577767 118.284878,14.7221526 C118.089253,14.9796561 117.893627,15.0762199 117.730606,15.1727838 Z" id="Shape" fill="#91C94A" fill-rule="nonzero"></path>
                            <path d="M13.318827,101.586685 C13.1068996,101.738428 12.8949721,101.87331 12.6993467,102.025054 C12.5363256,102.159936 12.3570023,102.277959 12.1776791,102.395981 C11.7538241,102.682607 11.313667,102.952373 10.9550205,103.323301 C10.7919994,103.491904 10.596374,103.626787 10.4170508,103.76167 C10.2540296,103.879692 10.1399148,104.031435 10.0584043,104.200039 C9.99319581,104.334922 9.9768937,104.486665 9.96059159,104.638408 C9.91168524,105.059917 10.0258,105.430845 10.1888212,105.801772 C10.3518423,106.138979 10.5148635,106.476186 10.6941867,106.813394 C10.7267909,106.880835 10.7593952,106.948276 10.7756973,107.015718 C10.9061142,107.268623 11.020229,107.538389 11.1506459,107.791294 C11.2647607,108.010478 11.3625734,108.229663 11.4603861,108.482568 C11.4114797,108.465708 11.3788755,108.482568 11.3625734,108.465708 C10.9387184,108.111641 10.449655,107.825015 9.9768937,107.555249 C9.91168524,107.521528 9.84647679,107.487808 9.79757045,107.454087 C9.32480914,107.13374 8.85204784,106.796533 8.39558865,106.476186 C8.29777597,106.408745 8.2162654,106.341304 8.13475483,106.273862 C7.93912946,106.122119 7.71089987,106.004097 7.48267028,105.902935 C7.30334702,105.818633 7.10772166,105.852353 6.9283984,105.902935 C6.81428361,105.936655 6.70016881,105.987236 6.60235613,106.054678 C6.3415223,106.223281 6.08068848,106.391885 5.85245889,106.611069 C5.72204198,106.729092 5.57532295,106.830254 5.44490604,106.965137 C5.24928067,107.167461 5.05365531,107.369785 4.85802994,107.572109 C4.59719612,107.841875 4.35266441,108.111641 4.09183059,108.381406 C4.04292424,108.431987 3.9940179,108.482568 3.92880945,108.516289 C3.5212566,108.769194 3.17891221,109.089541 2.8202657,109.393027 C2.67354668,109.51105 2.54312977,109.629072 2.44531708,109.780815 C2.36380651,109.915698 2.2333896,110 2.07036846,110 C2.07036846,109.966279 2.07036846,109.932559 2.07036846,109.915698 C2.13557692,109.645933 2.21708749,109.359307 2.28229594,109.089541 C2.33120229,108.937798 2.38010863,108.769194 2.41271286,108.617451 C2.51052554,108.297104 2.59203611,107.959897 2.68984879,107.639551 C2.75505725,107.420366 2.85286993,107.218042 2.88547416,106.998857 C2.90177627,106.863975 2.96698473,106.745952 3.03219318,106.62793 C3.11370375,106.493047 3.17891221,106.324443 3.21151644,106.1727 C3.26042278,105.936655 3.32563123,105.70061 3.42344392,105.464565 C3.55386083,105.161079 3.53755871,104.840732 3.50495449,104.520386 C3.48865237,104.284341 3.30932912,104.098877 3.16261009,103.913413 C3.11370375,103.845972 3.0484953,103.795391 2.98328684,103.74481 C2.54312977,103.390742 2.08667058,103.019814 1.6465135,102.665747 C1.58130505,102.615166 1.49979448,102.564585 1.41828391,102.514004 C1.287867,102.429702 1.1737522,102.3454 1.04333529,102.261099 C0.766199353,102.075635 0.489063417,101.907031 0.195625367,101.738428 C0.130416911,101.704707 0.0815105694,101.670986 0,101.637266 C0.114114797,101.569824 0.228229594,101.586685 0.342344392,101.569824 C0.961824719,101.536103 1.59760716,101.451802 2.20078538,101.333779 C2.26599383,101.316919 2.3475044,101.316919 2.41271286,101.300059 C2.51052554,101.283198 2.60833822,101.266338 2.70615091,101.215757 C3.03219318,101.030293 3.35823546,100.87855 3.6353714,100.608784 C3.87990311,100.355879 4.12443481,100.136694 4.38526864,99.9006493 C4.56459189,99.7320458 4.71131091,99.5128612 4.85802994,99.310537 C5.2818849,98.7035644 5.55902084,98.0291503 5.88506311,97.3715966 C5.95027157,97.2198534 6.03178214,97.0849706 6.11329271,96.9332274 C6.17850116,96.7983446 6.26001173,96.6634618 6.32522019,96.528579 C6.3415223,96.4948583 6.35782442,96.4442772 6.37412653,96.4105565 C6.58605401,96.0902098 6.71647092,95.7361425 6.89579418,95.3989354 C6.94470052,95.3146337 6.97730474,95.2134716 7.02621109,95.1291698 C7.0425132,95.1123095 7.07511743,95.0954491 7.10772166,95.0617284 C7.20553434,95.3820751 7.28704491,95.7024218 7.38485759,96.0227684 C7.48267028,96.3768358 7.59678507,96.7309032 7.71089987,97.0849706 C7.72720198,97.1355517 7.75980621,97.2029931 7.77610833,97.2535741 C7.93912946,97.9448485 8.2162654,98.6024023 8.41189077,99.2768163 C8.49340134,99.5465819 8.60751613,99.7994872 8.78683939,100.018672 C8.93355841,100.204136 9.09657955,100.355879 9.30850703,100.457041 C9.52043451,100.558203 9.71605988,100.676226 9.94428947,100.709946 C10.0421022,100.726807 10.1399148,100.743667 10.2377275,100.743667 C10.4333529,100.743667 10.6126761,100.777388 10.7919994,100.827969 C11.5255945,100.996572 12.2754918,101.165176 13.0090869,101.283198 C13.1558059,101.300059 13.3514313,101.316919 13.595963,101.35064 C13.4981503,101.485522 13.4003376,101.536103 13.318827,101.586685 Z" id="Shape" fill="#91C94A" fill-rule="nonzero"></path>
                            <path d="M188.70675,20.105203 C188.494822,20.2569462 188.282895,20.391829 188.087269,20.5435722 C187.924248,20.678455 187.744925,20.7964774 187.565602,20.9144999 C187.141747,21.2011259 186.70159,21.4708915 186.342943,21.8418192 C186.179922,22.0104228 185.984297,22.1453056 185.804973,22.2801884 C185.641952,22.3982109 185.527837,22.549954 185.446327,22.7185575 C185.381118,22.8534403 185.364816,23.0051835 185.348514,23.1569267 C185.299608,23.5784355 185.413723,23.9493632 185.576744,24.3202909 C185.739765,24.657498 185.902786,24.994705 186.082109,25.331912 C186.114713,25.3993535 186.147318,25.4667949 186.16362,25.5342363 C186.294037,25.7871415 186.408151,26.0569072 186.538568,26.3098124 C186.652683,26.528997 186.750496,26.7481816 186.848309,27.0010869 C186.799402,26.9842265 186.766798,27.0010869 186.750496,26.9842265 C186.326641,26.6301591 185.837577,26.3435331 185.364816,26.0737675 C185.299608,26.0400468 185.234399,26.0063261 185.185493,25.9726054 C184.712732,25.6522587 184.23997,25.3150517 183.783511,24.994705 C183.685698,24.9272636 183.604188,24.8598222 183.522677,24.7923808 C183.327052,24.6406376 183.098822,24.5226152 182.870593,24.4214531 C182.69127,24.3371513 182.495644,24.370872 182.316321,24.4214531 C182.202206,24.4551738 182.088091,24.5057548 181.990279,24.5731962 C181.729445,24.7417997 181.468611,24.9104033 181.240381,25.1295878 C181.109964,25.2476103 180.963245,25.3487724 180.832829,25.4836552 C180.637203,25.6859794 180.441578,25.8883037 180.245952,26.0906279 C179.985119,26.3603935 179.740587,26.6301591 179.479753,26.8999248 C179.430847,26.9505058 179.38194,27.0010869 179.316732,27.0348076 C178.909179,27.2877128 178.566835,27.6080595 178.208188,27.9115459 C178.061469,28.0295683 177.931052,28.1475908 177.83324,28.2993339 C177.751729,28.4342168 177.621312,28.5185185 177.458291,28.5185185 C177.458291,28.4847978 177.458291,28.4510771 177.458291,28.4342168 C177.523499,28.1644511 177.60501,27.8778252 177.670218,27.6080595 C177.719125,27.4563164 177.768031,27.2877128 177.800635,27.1359697 C177.898448,26.815623 177.979959,26.478416 178.077771,26.1580693 C178.14298,25.9388847 178.240792,25.7365605 178.273397,25.5173759 C178.289699,25.3824931 178.354907,25.2644706 178.420116,25.1464482 C178.501626,25.0115654 178.566835,24.8429618 178.599439,24.6912187 C178.648345,24.4551738 178.713554,24.2191288 178.811366,23.9830839 C178.941783,23.6795976 178.925481,23.3592509 178.892877,23.0389042 C178.876575,22.8028593 178.697252,22.6173954 178.550533,22.4319316 C178.501626,22.3644901 178.436418,22.3139091 178.371209,22.263328 C177.931052,21.9092607 177.474593,21.5383329 177.034436,21.1842655 C176.969228,21.1336845 176.887717,21.0831034 176.806206,21.0325224 C176.675789,20.9482206 176.561675,20.8639188 176.431258,20.7796171 C176.154122,20.5941532 175.876986,20.4255497 175.583548,20.2569462 C175.518339,20.2232255 175.469433,20.1895048 175.387922,20.1557841 C175.502037,20.0883427 175.616152,20.105203 175.730267,20.0883427 C176.349747,20.054622 176.98553,19.9703202 177.588708,19.8522977 C177.653916,19.8354374 177.735427,19.8354374 177.800635,19.818577 C177.898448,19.8017167 177.996261,19.7848563 178.094073,19.7342753 C178.420116,19.5488114 178.746158,19.3970682 179.023294,19.1273026 C179.267826,18.8743973 179.512357,18.6552128 179.773191,18.4191679 C179.952514,18.2505643 180.099233,18.0313798 180.245952,17.8290555 C180.669807,17.2220829 180.946943,16.5476688 181.272986,15.8901151 C181.338194,15.7383719 181.419705,15.6034891 181.501215,15.451746 C181.566424,15.3168631 181.647934,15.1819803 181.713143,15.0470975 C181.729445,15.0133768 181.745747,14.9627958 181.762049,14.929075 C181.973977,14.6087284 182.104393,14.254661 182.283717,13.9174539 C182.332623,13.8331522 182.365227,13.7319901 182.414134,13.6476883 C182.430436,13.630828 182.46304,13.6139676 182.495644,13.5802469 C182.593457,13.9005936 182.674967,14.2209403 182.77278,14.541287 C182.870593,14.8953543 182.984708,15.2494217 183.098822,15.6034891 C183.115124,15.6540702 183.147729,15.7215116 183.164031,15.7720926 C183.327052,16.4633671 183.604188,17.1209208 183.799813,17.7953348 C183.881324,18.0651005 183.995439,18.3180057 184.174762,18.5371903 C184.321481,18.7226542 184.484502,18.8743973 184.69643,18.9755595 C184.908357,19.0767216 185.103982,19.194744 185.332212,19.2284647 C185.430025,19.2453251 185.527837,19.2621854 185.62565,19.2621854 C185.821275,19.2621854 186.000599,19.2959061 186.179922,19.3464872 C186.913517,19.5150907 187.663414,19.6836942 188.397009,19.8017167 C188.543728,19.818577 188.739354,19.8354374 188.983885,19.8691581 C188.886073,20.0040409 188.78826,20.054622 188.70675,20.105203 Z" id="Shape" fill="#91C94A" fill-rule="nonzero"></path>
                            <path d="M136.101332,66.7370643 C135.872539,67.2644792 135.59256,67.7707816 135.344011,68.2903661 C135.24962,68.4875148 135.188556,68.6990358 135.105939,68.901537 C135.055251,69.0257337 134.992291,69.1451727 134.93851,69.2592593 C134.242952,69.1682676 133.478646,68.9076824 132.727411,68.5033739 C132.75934,68.3852235 132.782988,68.2536919 132.830084,68.1308828 C133.104475,67.4157356 133.471562,66.7436062 133.911686,66.1101334 C134.049281,65.9120927 134.09049,65.72327 133.992906,65.4776519 C133.781974,65.3886425 133.559866,65.2863512 133.331472,65.199919 C132.488541,64.8810516 131.542238,64.0705514 131.115484,63.3180361 C130.845583,62.8424607 130.64363,62.3520174 130.533375,61.8357039 C130.50404,61.6984233 130.526889,61.5890945 130.613098,61.459248 C130.991459,60.8905994 131.548624,60.4725133 132.037141,59.9977309 C132.29497,59.7471567 132.595803,59.5331577 132.902623,59.2817907 C133.01677,59.5494133 133.09779,59.7992936 133.226305,60.0295482 C133.610454,60.7176358 134.134492,61.2820223 134.982712,61.5139619 C135.675676,61.7034784 136.240923,61.5261536 136.692422,61.0763493 C136.995151,60.7748278 137.307459,60.4779649 137.574367,60.1503749 C138.009602,59.616319 138.253262,59.0207099 138.048715,58.303382 C137.81194,57.4730579 137.583546,56.6409497 137.372215,55.8065617 C137.315241,55.5816595 137.323922,55.3452595 137.319332,55.1149057 C137.314343,54.8619528 137.334,54.6101892 137.333501,54.3573354 C137.332303,53.5697318 137.431683,52.7981855 137.727926,52.0763973 C137.96979,51.4869336 138.259748,50.9098598 138.771214,50.4728419 C138.982845,50.2920479 139.211837,50.1145249 139.468967,49.9929053 C140.233971,49.6309208 141.019729,49.3116569 141.958448,49.4507216 C142.19672,49.4860081 142.236931,49.4476489 142.302885,49.2497072 C142.496755,48.6669836 142.737821,48.0954606 142.86903,47.4976708 C142.972999,47.0237805 143.255274,46.6457387 143.438069,46.1728395 C143.604899,46.2284455 143.767039,46.2589744 143.903736,46.3320254 C144.662554,46.7377216 145.475253,47.0170403 146.282763,47.3093438 C146.42375,47.3603903 146.564039,47.4133201 146.742543,47.479532 C146.674993,47.6017463 146.636977,47.6978922 146.575015,47.7782781 C146.206831,48.255935 145.836153,48.7321052 145.458689,49.2035175 C145.373678,49.3096745 145.258832,49.3954129 145.157657,49.4904685 C145.112257,49.5330899 145.046104,49.5675835 145.024652,49.6195221 C144.94842,49.8044791 145.246759,50.2989863 145.464975,50.3666849 C145.988814,50.52934 146.466555,50.7504757 146.824861,51.1705441 C147.236149,51.6526614 147.669489,52.1200099 148.100134,52.5886469 C148.211288,52.7096718 148.231044,52.8111702 148.131564,52.9284286 C148.063016,53.0091118 148.004745,53.09713 147.940588,53.1809851 C147.638158,53.5759763 147.336028,53.9711658 147.031902,54.3649676 C146.988598,54.4211683 146.935017,54.4708272 146.867965,54.5432836 C146.727676,54.4307829 146.583795,54.3451437 146.483019,54.2294712 C146.020943,53.699281 145.454299,53.2891244 144.815216,52.9571732 C144.525358,52.8065116 144.24488,52.6344401 143.943648,52.5095495 C143.090339,52.1556929 142.07519,52.3776215 141.530298,53.0824603 C141.370153,53.2894218 141.124098,53.4384975 140.959064,53.642882 C140.373961,54.3672473 140.107452,55.1642673 140.448097,56.113733 C140.719196,56.8695192 140.939906,57.6372989 141.188854,58.3985367 C141.293123,58.7173051 141.429222,59.029928 141.521916,59.3505796 C141.760487,60.176146 141.716086,60.985655 141.521517,61.7879283 C141.393201,62.3169291 141.296316,62.8545533 141.02402,63.3362741 C140.926037,63.5096341 140.829551,63.6852738 140.71281,63.8475325 C140.077817,64.7297952 139.231394,65.3771447 138.102396,65.7092941 C137.928981,65.7603407 137.765244,65.834383 137.59572,65.8950441 C137.459222,65.9440091 137.343678,65.9313218 137.210074,65.8302199 C137.06789,65.7225762 136.888687,65.6561661 136.682444,65.5494144 C136.533574,65.7173228 136.39548,65.8731387 136.248306,66.0391639 C136.412542,66.3172932 136.195124,66.5210829 136.101332,66.7370643 Z" id="Fill-24" fill="#91C94A"></path>
                        </g>
                    </g>
                </g>
            </g>
        </g>
    </g>
</svg>