<?xml version="1.0" encoding="UTF-8"?>
<svg width="231px" height="98px" viewBox="0 0 231 98" version="1.1" xmlns="http://www.w3.org/2000/svg" xmlns:xlink="http://www.w3.org/1999/xlink">
    <!-- Generator: Sketch 51.3 (57544) - http://www.bohemiancoding.com/sketch -->
    <title>GH_LocalFavorites</title>
    <desc>Created with Sketch.</desc>
    <defs></defs>
    <g id="Page-1" stroke="none" stroke-width="1" fill="none" fill-rule="evenodd">
        <g id="Specs" transform="translate(-263.000000, -1021.000000)">
            <g id="GH_valueprops" transform="translate(128.000000, 229.000000)">
                <g id="Group-6" transform="translate(104.000000, 781.000000)">
                    <g id="Group-18" transform="translate(0.000000, 11.000000)">
                        <g id="GH_LocalFavorites" transform="translate(31.000000, 0.000000)">
                            <path d="M61.3382916,74.6280822 C61.3542596,76.7814409 61.4793423,78.9328217 61.5239197,81.0848617 C61.3622436,81.2074964 61.1852649,81.3241971 60.9776809,81.4250739 C58.9171431,82.4312054 56.9118279,82.4885668 54.7375181,82.4457106 C54.4347914,80.4637766 54.1819646,78.4765681 53.9836953,76.4854036 C53.6590125,76.360791 53.4208231,76.0706875 53.4640698,75.6098186 C53.8186926,71.8121009 53.1433791,67.9932847 53.005655,64.1863364 L46.5446016,65.0091753 C46.0595735,65.0711519 45.7628347,64.820608 45.649728,64.4790772 C39.620476,64.7480822 33.5898933,64.9933514 27.5573146,65.1891713 C27.4641679,65.3724639 27.4049532,65.5834482 27.4016265,65.8333328 C27.3257785,71.2813435 26.450865,76.6686962 26.8214557,82.0909932 C25.7476075,82.0006655 24.6750899,81.900448 23.6012417,81.7778133 C22.1415,81.8760529 20.683089,81.9901163 19.2233473,82.1002238 C18.9878193,81.8780309 18.6671285,81.7290232 18.2486338,81.7244079 C14.1315502,81.6775958 10.0557172,81.2147489 5.97522696,80.7624513 C5.91268562,80.5864113 5.85945894,80.3991627 5.8268576,80.189497 C5.81820826,80.1341136 5.81088959,80.0787303 5.80224026,80.0233469 C5.64256022,79.592807 5.57802287,79.1312788 5.60197488,78.6743659 C4.81089337,73.3252541 4.25800124,67.9596591 3.90737049,62.5835149 C8.7716236,64.8146741 14.769605,64.9181883 16.9598828,60.1440087 C20.9951304,63.5533835 26.8660331,63.621294 30.1035458,59.2499627 C31.8926276,60.894981 34.0895587,62.2564892 36.3004619,62.8901015 C38.082225,62.8221909 39.8646534,62.7582363 41.6457511,62.6837325 C42.6277833,62.2301162 43.5299755,61.499583 44.3017624,60.4314749 C44.5525931,60.449936 44.8100772,60.3826847 45.0016932,60.2257651 C48.664354,62.7582363 53.8719192,61.762654 56.9603973,58.6044825 C58.1134202,60.1743377 59.6357032,61.1883811 61.4540596,61.7171605 C61.4553903,65.8168496 61.456721,69.9165387 61.4580516,74.016887 C61.380873,74.1929271 61.3369609,74.3953402 61.3382916,74.6280822 Z M37.0993943,34.2538592 C31.8618891,34.11606 26.6110773,33.5490397 21.3848828,33.1363016 C21.205908,33.0730063 21.0256027,33.0123483 20.8539466,32.9385038 C20.2072425,32.9385038 19.5605383,32.9319106 18.9138342,32.9160867 C18.5259448,32.9068562 18.0821673,32.7222449 17.7900859,32.4196143 C17.3057232,29.8139579 17.1334018,27.2076422 17.2365285,24.5703383 C17.5339325,24.503087 17.8313366,24.442429 18.1287407,24.3910016 C21.0315907,24.9593406 23.9637153,25.164391 26.9304374,25.4182315 C30.7368102,25.7445979 34.5365298,26.9379779 38.3708466,26.6254574 C38.4120973,26.6215014 38.4480253,26.6109522 38.4866147,26.6036996 C39.4120935,26.7790803 40.3408991,26.9498458 41.2736966,27.0968755 C41.8359034,27.0784144 42.3967795,27.049404 42.9589863,26.9933613 C43.121993,26.9775375 43.2929838,26.9630323 43.4619785,26.9485271 C46.0920417,27.3461007 48.7054717,27.8669682 51.3648096,27.6282922 C51.6675363,29.4097911 51.9695977,31.1919492 52.2709938,32.9741074 C47.249722,33.5767314 42.1486102,34.3863837 37.0993943,34.2538592 Z M53.7886195,26.7157851 C54.1618716,28.6060727 54.7759744,30.6664664 55.1365851,32.710377 C55.1226131,33.7415629 55.1073105,34.7720894 55.0953344,35.8039346 C52.5371272,35.5085566 49.9922266,35.4643817 47.449322,35.5500941 C44.494576,35.9127234 41.527854,36.2120574 38.5724427,36.2351338 C38.0647932,36.2878799 37.5571438,36.340626 37.0481637,36.393372 C29.7541127,37.1555529 22.5478857,35.6898712 15.2811134,35.2804298 C14.8226986,31.0383263 13.871937,26.7019392 14.4647492,22.4525832 C14.98504,22.0405044 15.6250908,21.7906199 16.2890936,21.8222675 C27.8532549,22.3787386 39.3788269,23.4481654 50.9017375,24.5380313 C52.1525644,24.6553913 53.5204901,25.3555955 53.7886195,26.7157851 Z M61.4464748,39.6746397 C61.5655695,39.8335373 61.6700269,40.0135333 61.7645042,40.2053972 C52.8636729,40.7565937 44.3879896,42.7780872 35.5190942,41.9651382 C25.718732,42.433919 15.9955485,40.6735186 6.19585155,40.6009928 C5.79465546,40.5983555 5.51920739,40.403195 5.36817669,40.1374866 C4.82326857,40.1394646 4.27769511,40.1421019 3.73212165,40.1434205 C3.77071099,39.321241 3.81129634,38.4990615 3.86518835,37.676882 C3.83924034,37.6294105 3.82460301,37.5766644 3.80131633,37.5285336 C3.9496857,36.1452677 4.60304318,34.8734278 4.98627527,33.5257655 C5.0880713,33.5415893 5.18986732,33.5580725 5.30230868,33.5580725 C7.72412256,33.5666437 10.1466018,33.6305983 12.569081,33.7136734 C12.5777303,33.7881772 12.5843837,33.8626811 12.593033,33.9371849 C13.0541091,34.0288312 13.3535092,34.4376133 13.3940945,34.9063941 C13.4439945,35.484623 13.4932292,36.0628519 13.5431292,36.6417401 C21.1605323,38.0922573 29.5324235,39.1465196 37.2077106,37.9847872 C44.0573189,36.9476674 50.6920244,37.1395313 57.610162,37.2839237 C57.6114926,37.2641439 57.61615,37.2463421 57.61615,37.225903 C57.6208073,36.1887832 57.63611,35.1523227 57.652078,34.1152029 C58.6746955,34.0057548 59.6973131,33.8857575 60.7192653,33.7407058 C61.3579855,35.5419844 61.4364948,37.7118262 61.4464748,39.6746397 Z M42.8015019,44.1560126 C42.8833379,44.5377624 43.1022326,44.8825899 43.4555247,45.0856623 L43.4555247,58.2833908 C40.4848107,63.9575503 34.4409213,61.0011325 30.8700765,57.4374755 C30.9425979,52.7417557 31.8414634,48.133067 32.2479822,43.465039 C32.9904943,43.5692125 33.7323412,43.6648147 34.476184,43.7841527 C37.257278,44.2291978 40.0317186,44.2944711 42.8015019,44.1560126 Z M15.6439862,42.4587756 L15.6439862,58.3735866 C15.4610195,59.0355499 15.2035355,59.6045482 14.8815141,60.0832189 C14.8395981,59.8768498 14.8003434,59.6698215 14.7564314,59.4627931 C14.7484474,59.7357541 14.7404634,60.0080557 14.7324794,60.2803573 C11.569484,64.5053183 3.13372072,61.3168178 0,57.4801998 C0.737189502,54.1229118 1.474379,50.7669425 2.21156851,47.4096545 C2.57018325,45.7738667 2.76911797,43.7194069 3.38787811,41.978127 C7.52026438,41.978127 11.6167227,42.0058187 15.7025356,42.1363652 C15.6672729,42.2319675 15.6439862,42.3374596 15.6439862,42.4587756 Z M30.4249684,43.8694695 C30.029095,48.6324405 29.0929708,52.6721309 29.0217801,57.4601563 C29.0217801,57.4852107 29.0264374,57.5069685 29.0277681,57.5313635 C26.3112115,62.0207142 20.9060422,61.5796251 17.4915508,58.1287129 L17.4915508,44.4364899 C17.4915508,44.3408876 17.4755828,42.9365232 17.4522961,42.8560855 C21.7782944,43.0275102 26.0943128,43.3301409 30.4249684,43.8694695 Z M54.4435738,42.8347892 C55.9206141,47.2015053 56.3910049,51.6249234 56.4648569,56.1927339 C56.3524155,56.340423 56.2705795,56.5072325 56.2240062,56.6878878 C53.7576149,60.0260553 48.4209751,61.0440546 45.3032223,58.1107133 L45.3032223,44.9011169 C45.3032223,44.8635353 45.2899157,44.8358436 45.2859237,44.8008994 C45.4875197,44.561564 45.5966344,44.2569554 45.6225824,43.9431162 C48.5646871,43.6681773 51.5041304,43.2363188 54.4435738,42.8347892 Z M66.0819863,50.6481979 C66.7073998,52.7402393 67.8877014,55.3491923 66.9535732,57.5447478 C65.4219755,61.1453271 60.3581223,58.9299918 58.6508766,56.6803715 C58.4080299,56.361917 58.4120219,56.0467592 58.5550686,55.7942373 C58.4745632,55.7342387 58.3920619,55.6814926 58.3055685,55.6432517 C58.2031072,51.1895046 57.7087644,46.8570734 56.3002534,42.5892562 C58.0720365,42.3637667 59.8444849,42.1705842 61.6182639,42.0492682 C62.0859934,41.5171922 63.1279056,41.4993904 63.3448043,42.3822279 C63.7353551,43.9672476 64.7113993,45.2542519 65.2296941,46.7832289 C65.6555075,48.0385856 65.7020809,49.3776767 66.0819863,50.6481979 Z M51.8868303,66.6529409 C51.7497716,71.9222743 52.4077864,77.1678719 53.4643359,82.3805032 C49.7883684,82.3231419 46.1117356,82.2651212 42.4357681,82.2071005 L41.8316453,82.1972106 C41.6739613,82.2057819 41.5169425,82.2084192 41.3592585,82.2156717 C41.0858065,77.220618 40.6666464,72.2295202 40.630053,67.2285325 C40.6287223,67.1157877 40.6114237,67.0109549 40.584145,66.9113967 C44.3519285,66.8401895 48.1203774,66.764367 51.8868303,66.6529409 Z M38.954078,75.7573099 C39.0512167,77.9647333 39.1583353,80.1714974 39.2461594,82.3795802 C35.8642693,82.5134234 32.4883672,82.484413 29.114461,82.2965051 C28.6567116,77.2961767 29.4670878,72.2661787 29.6700145,67.2559605 C32.6892979,67.1412377 35.7085812,67.0634373 38.7285299,66.9882741 C38.7178846,67.0654152 38.7059086,67.1432157 38.7059086,67.2282688 C38.7152232,68.9537249 38.7637926,70.6772031 38.8236726,72.4006812 L39.1204113,75.2786392 C39.1423673,75.4942388 39.071842,75.652477 38.954078,75.7573099 Z M22.7622561,77.0392374 C17.9166324,77.3596698 13.0942953,77.0623138 8.25931682,76.6779268 C7.8734234,73.1650378 7.78693005,69.6468743 7.95925142,66.1142056 C12.8907032,66.054207 17.8214897,65.993549 22.7529415,65.9335503 C23.2020416,69.6251166 22.5114254,73.3358033 22.7622561,77.0392374 Z M10.3288366,74.4759757 L20.3607349,74.4759757 L20.3607349,68.0020538 C16.8850328,67.9954605 13.4113267,67.9493077 9.94227787,67.7251368 C9.90235786,69.9991522 9.84447385,72.2520691 10.3288366,74.4759757 Z M62.0987678,82.4445897 C63.4380841,82.4426118 64.1293656,84.0118076 63.5691548,84.9810168 C63.5425414,84.9790389 63.5192548,84.9724456 63.4913108,84.9717863 C58.4554016,84.8939858 53.5738498,87.4495334 48.4354793,87.4864556 C42.74089,87.5279932 37.0449701,86.8416348 31.3337474,86.8396568 C31.015718,86.8396568 30.766218,86.943171 30.5785939,87.1027279 C28.1501267,87.1416281 25.7369621,87.3420632 23.3104909,87.3868974 C23.1634522,87.3196462 22.9924615,87.2800866 22.7955228,87.2794273 C21.9139559,87.2754713 20.9784971,87.2998664 20.0184208,87.3216241 C16.6524987,87.1047059 13.33315,86.5152684 9.98718788,86.1414306 C8.04707544,85.4286992 6.51614309,85.1781553 4.49086796,85.1748587 C4.19679056,84.7575053 4.10364387,84.2082868 4.22007723,83.7151109 C4.03777586,83.1566618 4.34050259,82.3733825 5.1216041,82.2929448 C10.0610399,81.7865824 14.7822463,82.8250208 19.6671248,83.3439104 C24.3244592,83.8384049 28.9611682,83.1777602 33.6218293,83.4942367 C38.3110997,83.8120318 42.8872634,84.5049835 47.6011511,84.158178 C52.3130429,83.8120318 57.0083013,83.0327085 61.690253,82.4162387 C61.8459411,82.3957996 61.9816691,82.4076675 62.0987678,82.4445897 Z" id="Combined-Shape" fill="#9BF0FF"></path>
                            <path d="M160.735892,55.089238 C160.464891,65.5677869 160.220089,76.0405809 161.064204,86.4698035 C158.19536,86.7879581 155.324877,87.0674737 152.43147,87.1077569 C152.176844,87.1110453 151.970523,87.187501 151.808414,87.3083505 C143.781543,87.1151558 135.764497,87.17928 127.796576,88.1929353 C127.687684,88.1814258 127.578792,88.1707385 127.470719,88.159229 L127.470719,75.3426139 C127.001585,71.7146651 126.799357,68.0661636 126.870587,64.3856 C126.54555,64.1685644 126.132908,64.0838876 125.741553,64.1389686 C125.604005,64.0986854 125.457452,64.0690897 125.291249,64.0690897 L108.041337,64.0690897 C108.032331,64.0690897 108.025781,64.0707339 108.017594,64.0707339 C107.009732,70.2554289 106.543053,76.4680755 106.653582,82.7242936 C106.386675,84.4416707 106.29907,86.1927541 106.274508,87.9282175 C106.050175,88.3836636 105.573672,88.6467372 105.034945,88.7166161 C103.667659,88.8933687 102.300372,89.0232612 100.933905,89.130957 C100.707934,89.1950812 100.481145,89.2559169 100.254355,89.3249737 C99.9587924,89.2937337 99.6640481,89.2674264 99.368485,89.2378306 C92.6311208,89.6423062 85.9084939,89.2213885 79.2284412,88.0054954 C78.261516,88.0622206 77.2937721,88.1394985 76.3260282,88.2471942 C74.6623602,88.4313457 73.1337834,87.5977314 72.0522355,86.3456656 C72.035042,84.5880054 72.0309484,82.8311673 72.0243985,81.0726849 C71.9769119,80.9682776 71.9359752,80.8548271 71.9130506,80.7232904 C71.5601762,78.7346186 71.5806445,76.7574564 72.0366795,74.8345531 C72.0293109,74.8041352 72.0162112,74.77865 72.0088425,74.7482321 C72.0284922,67.4668491 72.1087281,60.1854662 72.179958,52.9032612 C74.6623602,54.5384278 78.2950841,54.2794647 81.277733,52.1066415 C82.2168212,53.9596659 83.5783762,55.6334715 85.7586655,55.857084 C88.1690192,56.1053597 89.94731,54.3986699 91.2147106,52.5078287 C95.132354,55.0867717 99.6100116,54.6453014 103.406482,51.9397542 C105.960933,56.1530418 110.505727,57.4051075 114.204768,53.9588438 C118.036445,58.1811745 122.9554,59.9651421 126.781345,55.4830263 C131.234441,59.8985516 136.938562,58.5001512 141.669209,54.5614467 C143.256734,56.4029616 145.295383,57.9197451 147.876033,57.2398644 C150.25855,56.6117763 151.738821,54.4348426 152.755689,52.2135152 C155.175868,54.2054753 158.023425,55.2676348 160.735892,55.089238 Z M109.418202,67.0599894 L116.324226,67.0599894 C116.254633,67.2301651 116.21124,67.4217156 116.21124,67.6428618 L116.21124,87.3635137 C113.65024,87.3215863 111.097426,87.4087295 108.556075,87.6808462 C108.728828,86.2405184 108.874563,84.8034791 108.896669,83.3475313 C108.899125,83.1921535 108.870469,83.0556841 108.82462,82.9348347 C108.989186,81.9236457 109.217612,80.9223219 109.547562,79.9423729 C109.800551,79.1917912 109.244631,78.6829082 108.631399,78.617962 C108.853276,74.7631122 109.126733,70.9115508 109.418202,67.0599894 Z M119.077875,67.0599894 L124.491345,67.0599894 L124.491345,87.8584208 C122.722061,87.6923556 120.954413,87.5591747 119.190041,87.4687431 L119.190041,67.6428618 C119.190041,67.4217156 119.147467,67.2301651 119.077875,67.0599894 Z M101.379296,72.8590351 C101.263855,75.0351467 101.250755,77.2227678 101.249936,79.4210762 C101.249936,79.678395 101.192625,79.8962528 101.100927,80.0845149 C97.2815314,80.3738958 93.5743027,79.6677077 89.7549074,79.4753351 C89.3103347,79.4523162 88.8362876,79.4679362 88.3417721,79.5065751 C87.6081862,79.3701057 86.8484008,79.2813184 86.0542286,79.2344584 C83.5701889,79.0864795 80.7742114,78.5134724 78.261516,78.925347 L78.261516,67.4208113 C78.5022239,65.9467772 78.7871434,64.4957621 78.8403611,63.0110407 C79.1678548,62.7841397 79.5903217,62.6969966 79.989864,62.7537219 C80.1274114,62.7126166 80.2739648,62.6838429 80.4401679,62.6838429 L101.141045,62.6838429 C101.240111,62.6838429 101.327716,62.7011071 101.416958,62.7167271 C100.721853,66.0733814 100.871681,69.4719629 101.379296,72.8590351 Z M156.450637,80.1141106 C156.450637,80.2168737 156.439993,80.3122379 156.423619,80.4034916 C152.273455,80.0294338 148.436047,81.5684142 144.272784,81.5404626 C140.224962,81.5149774 136.345799,80.6295704 132.330726,80.9452587 C132.311895,80.9189513 132.302889,80.8827787 132.285696,80.854005 C132.200547,80.4051358 132.13423,79.9562665 132.081831,79.5065751 L132.081831,73.3185917 C132.301251,70.5859151 132.665588,67.8483058 132.649214,65.1074081 C132.676232,65.0884997 132.7098,65.0794566 132.738456,65.0613703 C136.459603,65.1822197 140.190575,65.2644302 143.902716,64.9265451 C145.543459,64.7777441 147.171103,64.4867189 148.797109,64.2030928 C150.946287,64.4686326 153.038153,64.7284178 154.961359,64.7621241 C155.360902,64.7687009 155.672839,64.9092809 155.906179,65.1189176 C156.227122,65.3581501 156.450637,65.733852 156.450637,66.2575329 L156.450637,80.1141106 Z M81.2398256,65.6743317 L99.2634414,65.6743317 C98.6649466,68.5755398 98.4275137,71.5096321 98.3333593,74.4618107 L96.3602097,74.4618107 C96.3159981,73.7523342 95.8435884,73.076564 94.9306997,73.076564 C94.0194485,73.076564 93.5462201,73.7523342 93.5011897,74.4618107 L92.9100636,74.4618107 C92.865852,73.7523342 92.3934423,73.076564 91.4805536,73.076564 C90.8255662,73.076564 90.4014619,73.4276028 90.1951408,73.8863373 C89.9102213,74.0080088 89.6957129,74.212713 89.5548906,74.4618107 L88.0803503,74.4618107 C88.0361386,73.7523342 87.5637289,73.076564 86.6500215,73.076564 C85.739589,73.076564 85.2655419,73.7523342 85.2205115,74.4618107 L84.6302041,74.4618107 C84.5859925,73.7523342 84.1135828,73.076564 83.2006941,73.076564 C82.2894429,73.076564 81.8162145,73.7523342 81.7703654,74.4618107 L81.2398256,74.4618107 L81.2398256,65.6743317 Z M165.594372,89.0143825 C165.367583,91.5448213 165.63449,94.0514191 165.910404,96.5621274 C165.108863,96.6673568 164.30896,96.7775189 163.5066,96.880282 C163.003897,96.5711706 162.5364,96.1502529 162.133583,95.5920437 C163.111151,96.9452283 162.76892,95.8814246 161.648073,96.3089191 C160.866182,96.6073432 159.840308,96.6385832 159.015024,96.7840957 C157.039418,97.1302019 155.059719,97.4532891 153.075926,97.7533574 C152.649365,97.8183037 152.221167,97.8717405 151.793788,97.9358647 C144.19184,98.0821993 136.551412,97.5659175 128.908528,96.9312525 C123.217506,97.4236933 117.513385,97.7328048 111.79862,97.828991 C104.841016,97.9449078 97.3872594,98.3502055 90.5549221,96.6410495 C87.2562418,96.8375326 83.9616551,97.0932072 80.6703435,97.4236933 C80.0038938,97.4911059 79.5920705,97.1376008 79.4299611,96.6632463 C79.2211838,96.7027074 79.0124066,96.7364137 78.8028106,96.7766968 C75.1766366,96.3615338 71.5381816,96.0663982 67.8776208,95.9776109 L67.8776208,89.3530897 C68.7708599,88.7726837 69.8851572,88.4791922 71.1681138,88.6830742 C77.2062788,89.6432927 83.278012,90.3815429 89.3677574,90.9109785 C107.495352,90.2623377 125.645872,89.4764054 143.780836,90.0099515 C145.646731,89.7830506 147.51017,89.5380633 149.369516,89.2659466 C149.824732,89.198534 150.296323,89.1146793 150.774464,89.025892 C150.946398,89.1870245 151.182193,89.292254 151.489219,89.2881434 C156.139629,89.2240193 160.733547,88.5490711 165.347115,88.0722503 C165.429807,88.3862944 165.51168,88.7003384 165.594372,89.0143825 Z M115.7209,38.0386377 L115.7209,36.2698597 C115.7209,35.8135915 115.905116,35.417337 116.197404,35.1271339 C115.519492,35.1057592 114.84158,35.0926055 114.162849,35.0942497 C113.784594,35.0950718 113.404701,35.1386434 113.028902,35.1855034 C111.980922,35.3170402 110.932943,35.3071749 109.883325,35.2249644 C108.631481,35.127956 107.373086,35.1476866 106.13516,35.2931991 C105.002032,35.425558 103.863991,35.4526875 102.7325,35.58258 C102.113537,35.6532811 101.483112,35.6269737 100.857599,35.6327284 C99.7637699,35.6425937 98.6699409,35.6458821 97.5752932,35.6467042 C97.3534163,35.6467042 97.1258081,35.6491705 96.9080248,35.6080653 C95.7159477,35.386097 94.5091335,35.3449917 93.3023192,35.354857 C92.6121262,35.3606117 91.922752,35.4559759 91.232559,35.5020138 C90.4424804,35.5546285 89.6769639,35.4033612 88.9245471,35.1805708 C88.7378757,35.1263118 88.5389233,35.0367024 88.4021947,34.9043435 C87.9870964,34.5023342 87.5597171,34.1027913 87.4344508,33.4927894 C87.40907,33.3678295 87.3165531,33.2560232 87.2453232,33.1450391 C86.9628599,32.7043909 86.7671824,32.2399016 86.7770072,31.6997787 C86.7827383,31.3199662 86.76227,30.9385096 86.7303394,30.5595192 C86.7139647,30.362214 86.657472,30.165731 86.6009793,29.9741805 C86.4929064,29.609166 86.3438968,29.2540167 86.2636608,28.8832474 C86.1302071,28.2699571 86.0647084,27.6533785 86.1334821,27.0154251 C86.2194492,26.2138728 86.1989808,25.4016332 86.2710294,24.5976146 C86.321791,24.0418717 86.4454198,23.4918835 86.5485803,22.9418954 C86.6026168,22.656625 86.6894026,22.3779314 86.7516264,22.0943053 C86.9669536,21.1094236 87.1773683,20.124542 87.3935141,19.1404824 C87.4270822,18.9875709 87.4696564,18.8346594 87.5326989,18.6924353 C87.9396098,17.7708557 88.3506144,16.8517424 88.9016226,16.0033302 C89.2184727,15.515822 89.5271356,15.021737 89.8464419,14.5350509 C89.9438713,14.387072 90.0527629,14.2423815 90.1722981,14.1116669 C90.9279899,13.2879178 91.6754942,12.4575918 92.4491981,11.6511069 C93.1451222,10.9251883 93.8795268,10.2370865 94.5795446,9.51445635 C95.2181573,8.85430613 95.8862445,8.22786221 96.587081,7.6359467 C97.2518932,7.07362696 97.9330801,6.53350405 98.65111,6.04188533 C99.4248139,5.51244979 100.196062,4.97725951 100.986959,4.47413132 C101.873648,3.91098948 102.807005,3.43170233 103.764105,3.00009727 C104.29137,2.76333106 104.804717,2.49368066 105.340169,2.27828918 C106.144985,1.95355776 106.935882,1.58443266 107.806196,1.44385273 C108.13369,1.39206012 108.451359,1.26627808 108.768209,1.15858234 C109.490333,0.915239291 110.241931,0.802610922 110.983704,0.648877309 C111.333304,0.575709975 111.680447,0.495143696 112.029228,0.420332152 C112.160225,0.392380586 112.292041,0.360318496 112.424676,0.347986923 C113.669152,0.235358554 114.91281,0.112042822 116.158105,0.0216112847 C116.645251,-0.0145613301 117.133217,-0.00716238619 117.625276,0.0577838995 C118.195934,0.133417549 118.779692,0.131773339 119.356899,0.119441766 C119.630356,0.113687031 119.887439,0.141638597 120.149434,0.204940673 C120.496577,0.287151161 120.846177,0.354563762 121.195776,0.425264782 C121.914625,0.570777346 122.638386,0.692448868 123.317117,0.995805569 C123.57993,1.11336657 123.868125,1.17420233 124.142401,1.26792229 C124.711421,1.45865062 125.277985,1.65431158 125.846187,1.84832833 C126.201518,2.21580921 126.682933,2.33994705 127.136512,2.51998802 C127.327277,2.84143103 127.716995,2.79046053 127.983902,2.97543412 C128.243441,3.15465299 128.534091,3.27139188 128.859948,3.26645925 C129.326626,3.5599507 129.89974,3.69148748 130.22314,4.2003704 C130.396712,4.47248711 130.651338,4.65417229 130.946083,4.77913223 C131.192522,4.88436166 131.434867,5.00027845 131.6854,5.0931763 C132.09231,5.24279939 132.418167,5.4803877 132.703086,5.81909491 C133.015024,6.19068632 133.361349,6.55241246 133.889432,6.63462295 C133.966393,6.64613242 134.062185,6.71354502 134.099847,6.78177973 C134.338099,7.2158511 134.759747,7.45015099 135.139639,7.71486877 C135.399997,7.89655395 135.632517,8.09796964 135.848663,8.32322638 C136.514294,9.01626079 137.166007,9.7249152 137.8431,10.4089065 C138.253286,10.8240694 138.651191,11.2458092 138.972134,11.7349616 C139.755663,12.9303021 140.615334,14.0820711 141.127043,15.4385441 C141.17453,15.562682 141.242484,15.6818872 141.310439,15.7969819 C141.582259,16.2598269 141.837704,16.7350035 142.13818,17.1789402 C142.468948,17.6672705 142.697375,18.1958839 142.900421,18.7434058 C143.242652,19.6674516 143.598802,20.5865649 143.947582,21.5081445 C143.995069,21.6339265 144.045012,21.7605307 144.071211,21.8912453 C144.326656,23.16633 144.574733,24.4422368 144.672162,25.7428067 C144.746667,26.725222 144.843278,27.7059932 144.93252,28.6867643 C144.987375,29.2926556 144.992287,29.9043016 144.87439,30.4962171 C144.755673,31.0897769 145.038955,31.5411124 145.296856,32.0039575 C145.357443,32.1132974 145.551483,32.1774216 145.69558,32.2045511 C146.098397,32.282651 146.461097,32.4363847 146.880289,32.7693371 C146.324368,32.9756855 145.865877,33.1877885 145.361536,33.2757537 C144.215309,33.4763473 143.089549,33.7533967 142.017007,34.218708 C141.996539,34.2269291 141.975252,34.2376165 141.953965,34.241727 C141.268684,34.3633985 140.643171,34.6757984 139.979178,34.8665267 C139.722914,34.939694 139.457644,34.9807993 139.194011,35.0210824 C138.356446,35.1468645 137.521337,35.3014202 136.67886,35.378698 C135.657079,35.4732401 134.637755,35.6236853 133.60615,35.5982 C133.429304,35.5940895 133.252457,35.6425937 133.074792,35.6647905 C132.653143,35.7174052 132.231495,35.7486452 131.806572,35.6763 C131.384924,35.6047769 130.960001,35.5998442 130.538353,35.6763 C130.04875,35.7650873 129.560784,35.7280926 129.069544,35.6787663 C128.070688,35.5801137 127.069376,35.4905043 126.068883,35.4082938 C125.267342,35.3425254 124.467438,35.2874444 123.660166,35.3803422 C123.241793,35.4272022 122.811139,35.3984285 122.388672,35.3663665 C121.895794,35.3285496 121.408647,35.3556791 120.916588,35.3811643 C120.428622,35.4058275 119.932469,35.4074717 119.44696,35.3515686 C119.179234,35.3211507 118.910689,35.299776 118.641325,35.2751128 C118.859109,35.5612053 118.995837,35.9097778 118.995837,36.2698597 L118.995837,38.2258794 C119.264283,38.2754323 119.53281,38.3250914 119.801472,38.3750237 C132.592557,38.7885424 145.336156,40.7484405 158.141978,39.741362 C158.442454,39.4034769 158.898489,39.2069938 159.462596,39.3434632 C161.349779,39.8013757 162.234012,41.4644938 162.631917,43.2566825 C163.123976,45.4730772 163.631591,48.332358 162.853794,50.5249117 C161.243343,55.0629307 155.432787,52.2365341 152.986409,49.8729826 C152.835761,49.7965268 152.683477,49.7217153 152.536105,49.6419711 C151.52333,51.7843764 149.832644,53.7533176 147.581944,54.4677268 C145.027493,55.2775001 143.127211,53.7376976 141.796768,51.7917754 C137.976554,55.8126903 129.319258,56.9430845 126.691939,52.2094046 C125.610391,53.6554871 124.017135,54.704493 122.258493,55.0423781 C122.138958,55.0703296 122.020242,55.0917044 121.899888,55.1065022 C121.895794,55.1073243 121.8917,55.1081465 121.886788,55.1081465 C121.858951,55.1114349 121.830295,55.1139012 121.802458,55.1163675 C121.266188,55.1804917 120.718454,55.1804917 120.166627,55.1015696 C117.568784,54.7324445 115.868273,52.8744875 114.612334,50.7353706 C112.573686,52.5637318 109.966836,53.9358249 107.184777,52.9764285 C105.473623,52.3853351 104.458392,51.0173526 103.776386,49.4569975 C101.153981,51.0247515 98.1492259,51.9233121 95.0675102,51.7539585 C93.2884007,51.6561281 91.9522264,51.0814767 90.7945362,50.1541424 C90.1059807,52.3804025 88.0092023,54.0739385 85.5006005,53.4655809 C83.345692,52.9427222 82.4770149,51.2154798 82.1560711,49.2374955 C80.3638618,50.5364212 78.2171406,51.2294556 75.976265,51.0313283 C75.71427,51.0395494 75.4580062,51.0231073 75.2115672,50.9836463 C74.4124826,50.9951557 73.6174916,50.8340232 72.8527938,50.4032402 C71.0433911,49.3838302 70.7003415,47.4535279 70.6012746,45.5470667 C70.5030265,43.6537591 69.8906133,40.6440332 71.5117071,39.1880854 C72.233012,38.5386226 73.1917498,38.3569374 74.0235838,38.6093236 C87.9232024,38.4872384 101.822079,38.2310553 115.72092,38.0386374 Z M135.060386,67.978445 C140.082502,65.0402422 147.762229,67.2163538 153.472082,67.6750883 L153.472082,75.8476329 L152.251349,75.8476329 C152.206319,75.1381564 151.733909,74.4623862 150.82102,74.4623862 C149.909769,74.4623862 149.436541,75.1381564 149.39151,75.8476329 L148.842958,75.8476329 C149.92205,75.1628196 149.667424,73.0763174 148.061067,73.0763174 C146.457985,73.0763174 146.198447,75.1628196 147.278357,75.8476329 L146.04125,75.8476329 C145.997038,75.1529543 145.539366,74.4928041 144.662501,74.4673188 C144.622383,73.755376 144.147517,73.0763174 143.231354,73.0763174 C141.628272,73.0763174 141.368733,75.1628196 142.448644,75.8476329 L139.83115,75.8476329 C139.78612,75.1381564 139.31371,74.4623862 138.40164,74.4623862 C137.48957,74.4623862 137.016342,75.1381564 136.971312,75.8476329 L135.060386,75.8476329 L135.060386,67.978445 Z M135.367411,7.15550861 C135.731748,7.02643814 136.048598,6.93107397 136.35153,6.80282561 C136.92055,6.56194888 137.485477,6.67457725 138.056953,6.78062878 C138.635798,6.88750241 139.051715,7.26238224 139.488919,7.61095471 C139.672316,7.75564517 139.804132,7.92499877 139.882731,8.14039025 C140.004722,8.47663115 140.127532,8.81369415 140.243792,9.15157926 C140.333034,9.41465282 140.462394,9.66046218 140.717021,9.77802318 C141.140306,9.97615045 141.566048,10.2096282 142.017171,10.2992377 C142.661515,10.4283081 143.260009,10.646988 143.842948,10.936369 C144.58554,11.3046719 145.012919,11.8908327 145.049762,12.7244471 C145.069412,13.1692058 145.034207,13.6164309 145.015376,14.0620117 C144.999001,14.4623768 145.054675,14.8150598 145.444392,15.0460713 C145.614689,15.1463681 145.744868,15.3124332 145.897152,15.4431479 C146.3712,15.851734 146.841972,16.2636086 147.324206,16.6615074 C147.519065,16.8226399 147.679537,16.9993925 147.768779,17.2378029 C147.847377,17.4466175 147.936619,17.6529658 148.003756,17.8650689 C148.035686,17.967832 148.051242,18.0878593 148.034049,18.1939109 C147.961181,18.6345591 147.903051,19.0817841 147.784335,19.5101008 C147.605851,20.1538089 147.602576,20.7884739 147.718017,21.4379367 C147.796616,21.8777628 147.912057,22.32581 147.894045,22.7656361 C147.871939,23.321379 147.799072,23.8943861 147.622226,24.4180669 C147.41263,25.0387561 147.23742,25.641359 147.264439,26.3064418 C147.280813,26.7051627 147.199759,27.107172 147.180109,27.5083592 C147.168647,27.7533464 147.204671,27.9999779 147.194846,28.2457872 C147.161278,29.1188626 147.103148,29.9902938 147.085136,30.8641913 C147.076948,31.2563353 147.058936,31.6608109 147.171922,32.0389792 C147.619769,32.0710413 147.616494,32.069397 147.755679,31.7208246 C147.786791,31.6427246 147.835096,31.5399615 147.901414,31.5144762 C148.092998,31.4371984 148.150309,31.2719553 148.229726,31.112467 C148.36973,30.8321292 148.520377,30.5575462 148.660381,30.2772084 C148.949394,29.6968024 149.265425,29.1270837 149.512683,28.5277692 C149.854914,27.7015538 150.143108,26.8531416 150.456683,26.0137725 C150.812014,25.0642413 151.031435,24.0900471 151.087928,23.070637 C151.124771,22.4014436 151.236118,21.7363608 151.31308,21.0696337 C151.346648,20.7802528 151.384309,20.4925161 151.410509,20.2023131 C151.448171,19.778107 151.479283,19.3547229 151.508757,18.9296947 C151.521038,18.7521201 151.557062,18.5663244 151.521857,18.3969708 C151.323723,17.4318196 151.282786,16.4461159 151.081378,15.4776763 C150.864413,14.4393579 150.574581,13.4388562 150.09644,12.4983682 C149.568357,11.4608719 149.005886,10.4422839 148.455697,9.41629703 C148.413942,9.33901917 148.35008,9.27407288 148.2985,9.20254976 C148.168321,9.0233309 148.043874,8.84000151 147.907145,8.66571527 C147.784335,8.50787114 147.668893,8.33111859 147.513334,8.21273548 C147.139991,7.93075351 146.753548,7.66439153 146.357281,7.41611585 C145.867678,7.10947073 145.336319,6.868594 144.883559,6.50193522 C144.489748,6.18213643 144.130324,5.80561239 143.700488,5.54829356 C143.265741,5.28686421 142.763038,5.13888533 142.288991,4.94322437 C142.165362,4.89143176 142.040914,4.84292757 141.915648,4.7977118 C141.455519,4.6291803 141.006034,4.42940882 140.504969,4.39816883 C140.32976,4.38748147 140.144726,4.34308781 139.988347,4.26580995 C139.293242,3.92463642 138.530182,3.86297855 137.790046,3.73061967 C137.068741,3.6015492 136.314687,3.60565973 135.619581,3.37629246 C134.692774,3.07046945 133.734855,3.02196526 132.785942,2.93811056 C131.92054,2.8608327 131.054319,2.8090401 130.197104,2.65284017 C129.820487,2.58460546 129.463519,2.67996963 129.00994,2.80575168 C129.243279,2.97346107 129.395564,3.09431049 129.558492,3.19789571 C129.859786,3.38862404 130.170086,3.5670208 130.47138,3.75857123 C130.753025,3.9377901 131.013382,4.15564789 131.307308,4.3077373 C132.204641,4.77469287 133.040569,5.32303682 133.794623,6.00127335 C134.04188,6.22324167 134.34645,6.3802637 134.617451,6.57839098 C134.885996,6.77405194 135.144716,6.98286658 135.367411,7.15550861 Z M141.292427,21.8723369 C141.347282,21.8427412 141.385763,21.7810833 141.447168,21.7177812 C141.445531,21.1710815 141.068913,20.7246785 141.005052,20.1903103 C140.990314,20.0653504 140.905166,19.9486115 140.856042,19.8368052 C140.610422,19.7891232 140.452406,19.897641 140.289478,20.0291778 C139.676246,20.524907 139.180093,21.1275099 138.698677,21.747377 C138.154219,22.4486325 137.784151,23.2238774 137.598298,24.0920201 C137.406715,24.9889365 137.172557,25.8726993 137.113608,26.7983894 C137.070215,27.4873133 136.968692,28.1811698 136.731259,28.8388537 C136.609267,29.1750946 136.447977,29.4965376 136.32271,29.8327785 C136.010773,30.6639265 135.366429,31.1637663 134.614012,31.537824 C134.109672,31.788566 133.565213,31.9003723 132.993737,31.8568007 C132.846365,31.8444691 132.69408,31.8913291 132.531971,31.9118817 C132.523783,32.0524617 132.498403,32.1659122 132.513959,32.2727858 C132.587645,32.784135 132.544252,33.2946622 132.504953,33.8043672 C132.500859,33.8487608 132.494309,33.8939766 132.496765,33.9383703 C132.503315,34.0863492 132.569633,34.1965112 132.716186,34.2384386 C132.822621,34.2688564 132.933151,34.2984522 133.042042,34.3050291 C133.69048,34.3420238 134.318449,34.3107838 134.950512,34.0830607 C135.951824,33.7196904 136.792664,33.1935433 137.331391,32.2440121 C137.419814,32.0886343 137.543443,31.9546312 137.631048,31.7984313 C137.762045,31.5649535 137.909417,31.3331199 137.988016,31.0807337 C138.219718,30.3334404 138.449782,29.5828586 138.505456,28.7936379 C138.540661,28.3020192 138.545574,27.8071121 138.61271,27.3196039 C138.710958,26.6101274 138.850962,25.9055835 138.977047,25.2010396 C139.068745,24.6905125 139.223486,24.2054706 139.550161,23.7894855 C139.67379,23.6316414 139.775313,23.4557109 139.89321,23.2929342 C140.287022,22.7470565 140.684108,22.2052894 141.292427,21.8723369 Z M132.315006,26.1563255 C132.423898,25.9351793 132.509046,25.7033457 132.595832,25.4731563 C132.864377,24.7595693 133.137015,24.0476264 133.389186,23.3291068 C133.626618,22.6533366 133.855045,21.9734558 134.060548,21.2869983 C134.21447,20.7723606 134.315174,20.242103 134.460909,19.7241769 C134.675417,18.9612635 134.752378,18.1827302 134.77694,17.3959759 C134.79659,16.7678877 134.822789,16.1389775 134.817058,15.5108894 C134.810508,14.6369919 134.763022,13.7778923 134.488746,12.9237253 C134.184177,11.9750163 133.700305,11.1841514 132.992918,10.4976938 C132.578639,10.0965066 132.101317,9.83096673 131.577327,9.62626262 C131.352175,9.5399416 131.125385,9.45855322 130.865847,9.36318905 C130.801985,9.41991429 130.714381,9.48568268 130.638238,9.56296054 C130.233784,9.98305613 129.903015,10.4565885 129.571428,10.9366978 C129.097381,11.6239775 128.744506,12.3737371 128.377713,13.1144536 C128.051038,13.7737817 127.795593,14.4717488 127.537692,15.1639611 C127.195461,16.0871849 126.881886,17.021096 126.556029,17.9500745 C126.541292,17.9911798 126.526555,18.0347513 126.520824,18.079145 C126.4586,18.533769 126.164675,18.8987836 126.033677,19.3205234 C125.901042,19.7463737 125.855193,20.1977093 125.76022,20.6358912 C125.732383,20.7657838 125.666065,20.8874553 125.623491,21.0157036 C125.497406,21.3979824 125.300091,21.7761507 125.272254,22.1658284 C125.239505,22.6122313 125.126519,23.040548 125.079852,23.4811962 C125.020084,24.0377612 124.965229,24.5992588 124.832594,25.1410259 C124.744171,25.4969974 124.73189,25.8455698 124.717152,26.2023633 C124.691772,26.8288073 124.688497,27.4577175 124.633641,28.0816951 C124.562412,28.8931126 124.652472,29.6905544 124.772826,30.487174 C124.792476,30.6170666 124.851425,30.7436707 124.907917,30.8645201 C125.078214,31.2287126 125.262429,31.5863282 125.427814,31.952987 C125.515418,32.1461816 125.645597,32.2908721 125.8249,32.3928131 C126.060695,32.5259941 126.306316,32.6188919 126.585504,32.6230025 C127.662958,32.6394446 128.544735,32.1544027 129.262765,31.427662 C129.904653,30.777377 130.412268,30.0004879 130.816723,29.1644072 C131.304688,28.1565066 131.818853,27.1609376 132.315006,26.1563255 Z M132.949198,14.1329594 C133.007328,14.6878802 133.07037,15.2444452 133.073645,15.8010102 C133.07692,16.3805941 133.013059,16.9610002 132.977853,17.5414062 C132.964754,17.5414062 132.950835,17.5414062 132.936917,17.5405841 C132.882062,18.0067176 132.846856,18.4769616 132.769076,18.9398066 C132.66346,19.5794042 132.528368,20.2132471 132.402283,20.8495562 C132.332691,21.1997729 132.254911,21.5491675 132.178769,21.89774 C132.155026,22.0062578 132.138651,22.1197083 132.094439,22.2200051 C131.694897,23.1177436 131.302723,24.0187706 130.882713,24.9066438 C130.520013,25.6736677 130.139302,26.4332926 129.736485,27.1789417 C129.492502,27.6310994 129.230507,28.0840792 128.904651,28.4754011 C128.624643,28.8124641 128.258669,29.0870472 127.898426,29.344366 C127.620057,29.5424933 127.295838,29.4997438 127.022381,29.2917513 C126.788223,29.1149987 126.585995,28.8946746 126.55079,28.5863853 C126.507397,28.2098613 126.445992,27.8251162 126.476285,27.4510584 C126.587633,26.0674559 126.69898,24.680565 126.994544,23.3216256 C127.279463,22.0103683 127.483328,20.6793805 127.900882,19.3993632 C128.233288,18.3799532 128.54932,17.3539663 128.918569,16.3477099 C129.282087,15.3587177 129.781515,14.4313834 130.383285,13.5665291 C130.572412,13.2944124 130.81967,13.0584683 131.06529,12.8323894 C131.430446,12.4936822 131.811157,12.476418 132.216431,12.7600442 C132.477607,12.9425515 132.683928,13.1801398 132.788726,13.4859628 C132.860774,13.6955996 132.926273,13.9134574 132.949198,14.1329594 Z M122.389491,8.09468122 C123.055941,7.73295507 123.734671,7.39589207 124.407671,7.04567539 C124.5051,6.99470489 124.593523,6.92811439 124.673759,6.87714389 C124.673759,6.4060778 124.673759,5.96049695 124.672122,5.5149161 C124.671303,5.4475035 124.663935,5.3800909 124.651654,5.31432251 C124.565687,4.83750168 124.260299,4.6212881 123.791983,4.71336384 C123.660985,4.7388491 123.531625,4.77913223 123.407178,4.82845853 C122.991261,4.99123529 122.573706,5.14907943 122.166795,5.33323092 C121.944918,5.43352772 121.732047,5.56342029 121.53637,5.70893286 C120.467922,6.49979775 119.579595,7.47563625 118.759223,8.5114884 C118.344125,9.0343471 117.925752,9.56131633 117.627732,10.170496 C117.48036,10.4697422 117.292051,10.7484358 117.132398,11.0419272 C116.792624,11.6700154 116.429106,12.2882382 116.132724,12.936879 C115.86336,13.5255061 115.68242,14.1527721 115.353289,14.7175581 C115.265684,14.8680033 115.222291,15.0505106 115.183811,15.2247969 C115.058544,15.7928713 114.946378,16.3642342 114.666371,16.8870929 C114.594322,17.0202739 114.578766,17.1863391 114.547654,17.3384285 C114.424844,17.9517188 114.336421,18.57323 114.178405,19.1774771 C113.896761,20.2486798 113.859917,21.347834 113.814887,22.4387672 C113.790325,23.0528795 113.629034,23.6850782 113.867286,24.3008348 C113.904129,24.3961989 113.859099,24.5228031 113.859917,24.6337872 C113.861555,24.8130061 113.850911,24.9963355 113.879567,25.1714438 C113.995009,25.8776319 114.040039,26.5920411 114.17513,27.2990513 C114.388001,28.4121813 114.801462,29.4398124 115.350833,30.4172951 C115.592359,30.8472559 115.909209,31.2262463 116.282552,31.5542661 C117.215909,32.376371 118.352312,32.5432583 119.529652,32.5621667 C119.792466,32.5662772 120.056098,32.4988646 120.295169,32.4676246 C120.562076,31.7696576 120.869101,30.6088455 120.911676,30.103251 C120.580088,30.0103532 120.284525,29.8911479 119.979137,29.8500427 C119.135022,29.7357701 118.396524,29.3995292 117.743174,28.8626947 C117.51966,28.6777211 117.304332,28.4828823 117.090643,28.2863992 C116.381619,27.6328258 115.925584,26.8255188 115.67587,25.8973624 C115.215741,24.1898506 115.286971,22.4823388 115.660314,20.7723606 C115.928859,19.5466022 116.255534,18.338108 116.637064,17.1411233 C116.958008,16.134867 117.391118,15.1771148 117.753818,14.1897668 C118.118973,13.1941978 118.773142,12.357295 119.225083,11.4094081 C119.282394,11.2918471 119.37573,11.1899061 119.46006,11.0854988 C120.115866,10.2683265 120.719273,9.40347219 121.544557,8.73756724 C121.596137,8.696462 121.628068,8.62904939 121.680467,8.59041047 C121.913806,8.42023475 122.137321,8.23115063 122.389491,8.09468122 Z M111.011541,16.7185614 C111.079496,16.5278331 111.023822,15.8800145 110.928849,15.5076009 C110.808495,15.5692588 110.66931,15.6029651 110.588255,15.6901082 C110.265674,16.0386807 109.817008,16.1200691 109.412553,16.3009321 C109.120265,16.4308247 108.786221,16.2080343 108.724816,15.9540039 C108.692886,15.8241113 108.671599,15.6892861 108.665867,15.555283 C108.615106,14.2793762 108.435803,13.0116905 108.434984,11.730029 C108.434166,10.8339347 108.390773,9.94030668 108.468552,9.04421236 C108.547151,8.12920963 108.635574,7.21174058 108.526683,6.29098311 C108.484927,5.93994433 108.496389,5.57904028 108.307262,5.27075095 C107.752979,5.35789407 107.22817,5.43352772 106.706636,5.52724768 C106.470841,5.56917503 106.308731,5.7171539 106.24487,5.96049695 C106.14826,6.32797783 106.059018,6.69710292 105.950126,7.06047328 C105.688131,7.94176971 105.402393,8.8148451 105.152679,9.69942995 C104.933258,10.475497 104.75723,11.2630734 104.55009,12.0424289 C104.475585,12.3227666 104.356869,12.5899507 104.273358,12.8678222 C104.177566,13.1884431 104.112067,13.5189292 104.008907,13.8379059 C103.646208,14.9650117 103.231109,16.0764975 102.913441,17.216757 C102.432025,18.9382446 101.908035,20.6474007 101.580541,22.4116377 C101.377495,23.5099699 101.10895,24.5959704 100.923916,25.7008794 C100.752801,26.717001 100.580048,27.7314784 100.4687,28.7566432 C100.456419,28.8684495 100.450688,28.9818999 100.421213,29.0887736 C100.20998,29.8705953 100.254192,30.691056 100.053602,31.4745219 C100.004478,31.6685387 99.9872843,31.8715986 99.966816,32.0721922 C99.9447102,32.2941605 99.9054109,32.5202394 100.10027,32.7816687 C100.704496,32.8589466 101.346383,33.0694054 102.058682,32.8712781 C102.084881,32.6797277 102.1119,32.4824225 102.138918,32.2867616 C102.18313,31.9760059 102.222429,31.6652503 102.272372,31.3561388 C102.436118,30.338373 102.641621,29.3247177 102.757062,28.3020192 C102.852854,27.4552512 103.046075,26.6273916 103.129586,25.7773351 C103.238478,24.6642051 103.489829,23.5666951 103.682232,22.4617861 C103.759193,22.0211379 103.840248,21.5804897 103.927852,21.1406636 C103.962239,20.9647331 104.013001,20.7929132 104.0654,20.6210933 C104.117799,20.4509176 104.248796,20.359664 104.418274,20.3621303 C105.162504,20.3719955 105.807666,20.093302 106.412711,19.6912927 C106.636225,19.5424917 106.864652,19.4019118 107.091441,19.2588655 C107.166765,19.2120055 107.242089,19.1602129 107.323143,19.1256845 C107.531102,19.0377193 107.735785,19.1552803 107.763622,19.3813591 C107.782453,19.536737 107.811109,19.6978695 107.789822,19.8499589 C107.698124,20.4944892 107.715317,21.1455962 107.656368,21.7893043 C107.624437,22.1313 107.728417,22.4535651 107.680111,22.789806 C107.482796,24.1487453 107.662918,25.5150837 107.6097,26.8781336 C107.583501,27.5448606 107.699761,28.2206308 107.657187,28.8857137 C107.61625,29.5359986 107.658006,30.173952 107.685024,30.8201265 C107.711223,31.4531472 107.795553,32.063149 107.931463,32.6731509 C107.9593,32.7964666 108.028892,32.9107392 108.081291,33.034877 C108.536507,33.0159686 108.958974,33.011036 109.378985,32.9773297 C109.671273,32.9534886 109.766246,32.8375718 109.75724,32.5342151 C109.740047,31.9735396 109.706479,31.4136862 109.680279,30.8538328 C109.645892,30.1369573 109.619693,29.4192597 109.573844,28.7032064 C109.527176,27.9682446 109.445302,27.2373934 109.437115,26.4983211 C109.428109,25.6260678 109.343779,24.7546366 109.284012,23.8832055 C109.202957,22.6985523 109.081784,21.5155434 109.053947,20.3267798 C109.037573,19.6321011 109.083422,18.9439993 109.17512,18.2550755 C109.442846,18.0890103 109.683554,17.9262335 109.937362,17.7872978 C110.277136,17.6023242 110.557144,17.3474717 110.808495,17.0605571 C110.894462,16.9619045 110.968148,16.8426993 111.011541,16.7185614 Z M107.528072,11.6642606 C107.552634,12.5126729 107.627958,13.3619072 107.477311,14.2785541 C107.492867,14.7915476 107.506785,15.3711315 107.528072,15.9515376 C107.538716,16.245029 107.256253,16.8163919 106.998351,16.9627266 C106.707701,17.1279697 106.416231,17.2973233 106.109206,17.4263937 C105.734226,17.58506 105.384626,17.773322 105.1038,18.0717461 C105.001459,18.1802639 104.895842,18.236167 104.750926,18.1794418 C104.587998,18.1161397 104.504487,17.9895356 104.493843,17.820182 C104.488112,17.7330389 104.498756,17.640141 104.522499,17.5554642 C104.792681,16.5862025 105.057132,15.6161188 105.343689,14.6526119 C105.495974,14.1387963 105.697383,13.6389565 105.858673,13.1276073 C106.079732,12.4247076 106.282778,11.7152311 106.496467,11.0098651 C106.554597,10.8174926 106.622552,10.6275864 106.684776,10.436858 C106.739631,10.2707928 106.85671,10.1655634 107.026188,10.1606308 C107.181748,10.1565203 107.254615,10.2913455 107.30292,10.4171275 C107.455205,10.8183147 107.515791,11.2375882 107.528072,11.6642606 Z M98.2884108,14.6041077 C98.9818787,13.8781891 99.6745279,13.1424052 100.572679,12.6499644 C100.703677,12.5784412 100.801925,12.4469045 100.896898,12.3614056 C100.887892,11.3337745 100.81175,10.8232473 100.606247,10.4294591 C100.205886,10.6695137 99.8014317,10.9021694 99.4084392,11.1529114 C99.2405987,11.2606071 99.0973202,11.4069418 98.9401232,11.5319017 C98.836144,11.6157564 98.7272523,11.6938564 98.6216356,11.7760669 C98.3236163,12.0095447 98.0149535,12.2306909 97.7308527,12.4806108 C97.0087291,13.1152757 96.2947929,13.7581618 95.5849503,14.4059804 C95.3557047,14.6164392 95.1469274,14.8507391 94.9348753,15.0801064 C94.5246894,15.5232209 94.1726337,16.0444354 93.6969491,16.3971184 C93.0632488,16.8657182 92.7947039,17.6261652 92.1863844,18.0939429 C92.153635,18.1194281 92.1249793,18.1662881 92.1192482,18.2073934 C92.0815864,18.4704669 91.8842715,18.6332437 91.7393555,18.8280826 C91.3258947,19.3854697 90.9672891,19.9773852 90.6389767,20.5882091 C90.5464597,20.760029 90.5038855,20.9598005 90.4301994,21.1694373 C90.8084547,21.5245866 91.204722,21.7991696 91.6558446,22.0499116 C91.9055585,21.6750318 92.1372603,21.3231709 92.3738745,20.9729542 C92.7987976,20.3432219 93.2425516,19.7241769 93.647825,19.0804688 C93.9761375,18.5584322 94.4207102,18.1564229 94.8767451,17.7593462 C94.9258692,17.7157747 94.9831806,17.6763136 95.0429482,17.6483621 C95.3000308,17.5275126 95.548926,17.6902894 95.5309138,17.977204 C95.5153579,18.2230134 95.4293908,18.4729332 95.4588652,18.7105216 C95.5415574,19.3854697 95.4138348,20.0497304 95.3966414,20.7189238 C95.3745356,21.5887107 95.4121973,22.4708293 95.2042388,23.3291068 C95.27465,24.0015886 95.2050576,24.6716041 95.1895016,25.3440858 C95.1723082,26.0815139 95.2189761,26.8205862 95.234532,27.5588364 C95.2369882,27.6706427 95.2361695,27.7865595 95.2058763,27.8917889 C95.1403776,28.1145793 95.1567523,28.3307929 95.1886829,28.5568717 C95.2640064,29.0912399 95.2705563,29.6297186 95.1772206,30.1649089 C95.1583897,30.2750709 95.1485649,30.3876993 95.1518399,30.4995056 C95.1739457,31.1703431 95.2157011,31.8403586 95.2206135,32.5103741 C95.222251,32.8375718 95.3057619,33.1228422 95.4605027,33.4089347 C96.0524475,33.551981 96.6140992,33.4673042 97.2535307,33.2815085 C97.2821864,32.8868981 97.3280355,32.5309267 97.3313104,32.1741332 C97.3394978,31.1423916 97.341954,30.11065 97.3255793,29.0797304 C97.3100233,28.0701856 97.2961049,27.0606408 97.2306061,26.0543845 C97.1511889,24.843424 97.184757,23.6349298 97.2117752,22.4256135 C97.233881,21.4612845 97.2821864,20.4977776 97.3092046,19.5334485 C97.3394978,18.4581354 97.3583287,17.381178 97.3853469,16.3058648 C97.3878031,16.2178996 97.403359,16.1250017 97.4377459,16.0452575 C97.6628978,15.5306199 97.9011495,15.0094054 98.2884108,14.6041077 Z" id="Combined-Shape" fill="#40C2DE"></path>
                            <path d="M226.272509,47.7360976 C226.160163,47.7224084 226.047817,47.7126304 225.935471,47.6989412 C225.822468,58.0851604 225.709465,68.4707278 225.595805,78.8569471 C225.649022,78.8914961 225.704209,78.9208302 225.757426,78.9566829 C225.932186,79.0772786 226.057672,79.2415494 226.145052,79.422117 C222.60648,79.6346261 219.077105,79.9911981 215.528677,80.0283546 C215.116742,80.0329177 214.819123,80.2108777 214.630566,80.4644545 C211.283836,80.2649828 207.937105,80.0648592 204.589718,79.8712543 L198.865324,79.9286187 L197.270142,79.9442636 C197.212983,79.937093 197.155168,79.9305743 197.097352,79.9227519 L197.097352,79.9214482 C197.092753,79.9214482 197.087497,79.9207963 197.082241,79.9207963 C195.633568,79.7174134 194.184238,79.5870397 192.735565,79.5016449 C192.747391,79.4305913 192.755275,79.3582339 192.765787,79.2858765 C192.661325,79.2774022 192.568689,79.253283 192.480651,79.223949 C192.392614,77.4671636 192.181719,75.72146 192.136386,73.9620672 C192.125874,73.5709462 191.927462,73.264568 191.650867,73.0657482 C191.843367,71.3558974 192.051634,69.6453947 192.116019,67.9244621 C187.49472,67.835808 182.87342,67.8032146 178.25212,67.8364598 L178.25212,69.009823 C178.25212,69.1082551 178.262632,69.1995167 178.281685,69.2849114 C178.200875,69.4152851 178.145687,69.5730373 178.143716,69.7718571 C178.116122,73.1348462 177.903913,76.4730643 178.416369,79.798245 C175.247027,80.0003242 172.075714,80.2121815 168.901117,80.2799758 C168.840016,80.1743731 168.789428,80.0622517 168.759206,79.9449154 C168.756578,79.9331818 168.754607,79.9214482 168.752636,79.9097145 C168.723728,79.7865114 168.711245,79.6607008 168.720443,79.5374977 C168.637005,76.2175319 168.598242,72.8975661 168.5943,69.5782522 C168.590358,69.5234953 168.584445,69.4687383 168.58116,69.4139814 C168.577218,69.3442315 168.589701,69.2790446 168.5943,69.2105984 C168.591672,62.1032772 168.776945,54.9972598 169.135664,47.8984129 C168.580503,47.2498038 168.520717,46.2420153 168.930024,45.4969297 C187.944761,45.4389134 206.954241,44.8946033 225.967664,44.7740076 C225.965693,44.9878205 225.963065,45.2009814 225.960437,45.4147943 C226.037962,45.4239204 226.114174,45.4323947 226.190385,45.440869 C226.243602,46.2107256 226.369745,46.9740635 226.46041,47.7400089 C226.399309,47.7419645 226.339523,47.7445719 226.272509,47.7360976 Z M204.220881,33.1599942 C203.418034,33.6032647 202.539632,33.731031 201.677655,33.6299914 C201.655975,35.3502721 201.792629,37.0477374 202.097475,38.7204317 C201.98053,38.7217354 201.857672,38.7360765 201.726273,38.7810555 L200.74538,39.1122046 L200.74538,31.6730824 C200.74538,30.9377748 199.593012,30.9364711 199.593012,31.6730824 L199.593012,39.5020219 L197.313897,40.2725304 C197.221261,37.8188977 196.781075,35.4330594 195.979542,33.0928518 C195.743023,32.4005675 194.629418,32.6978195 194.869221,33.3966225 C195.678638,35.761601 196.110283,38.1715585 196.17007,40.6590883 L194.742421,41.1421228 C194.697088,41.1577677 194.658982,41.1786275 194.617592,41.1968798 C194.423121,41.1851461 194.228651,41.1695013 194.033524,41.1538565 L190.899003,32.135909 C190.897032,32.1293903 190.89309,32.1241753 190.890462,32.1176567 C190.871409,31.9755493 190.826733,31.8367014 190.762348,31.7069796 C190.403629,31.6039844 190.052794,31.4749144 189.71904,31.2956506 C189.528512,31.1926554 189.356379,31.0766228 189.191474,30.9534197 C187.369628,30.3836867 186.110169,27.9470026 187.260567,26.275612 C188.40308,24.6159551 190.920026,24.7137353 192.270807,25.9913974 C192.408776,26.3518806 192.67683,26.5578711 192.98496,26.6302284 C193.119644,26.6849854 193.256956,26.6960672 193.392297,26.6823779 C193.215565,24.8845249 193.783866,23.1127465 194.938205,21.6942809 C195.269987,21.1199848 195.720686,20.6102237 196.292928,20.2230139 C197.367771,19.4955288 198.625916,19.4231714 199.148883,20.7621091 C199.296707,21.1408446 199.334813,21.5417437 199.31576,21.9485096 C199.823617,23.239209 199.977353,24.6420298 199.927422,26.0415913 C200.326218,26.2645303 200.841301,26.2879975 201.279517,25.9079583 C202.720306,24.6563709 204.722168,25.5194447 205.548667,27.018742 C205.678752,27.2527628 205.777958,27.5017765 205.863368,27.756657 C206.12091,27.9437433 206.310781,28.2312172 206.342974,28.6249458 C206.490797,30.4006353 205.862054,32.254549 204.220881,33.1599942 Z M230.130119,39.3599146 C230.132747,40.4296307 230.429051,42.0286639 229.728695,42.9947328 C208.834297,43.0605715 187.946469,43.7156993 167.052071,43.741774 C166.99557,43.6446456 166.944324,43.5416504 166.902933,43.4262697 C166.500853,42.3174416 166.76168,40.829226 166.76168,39.6526035 C166.762337,38.0079395 166.762994,36.3645793 166.762994,34.7205672 C166.763651,33.4318234 168.527024,33.2721156 168.967867,34.2368808 C169.080213,34.1938575 169.200443,34.1599604 169.337098,34.1475749 C174.258644,33.6893114 179.162452,33.6645404 184.057718,34.0348016 C185.69035,33.9063836 187.32101,33.7382015 188.951014,33.5309074 C188.912251,33.4181341 188.872831,33.304709 188.833412,33.1912839 C187.899822,32.9442258 187.054927,32.4422871 186.359827,31.7858556 C186.228428,31.8921102 186.05761,31.9670751 185.847371,31.987283 C181.02963,32.4546726 176.209918,32.6306771 171.371153,32.5185557 C170.869867,32.5061702 170.60247,32.1522057 170.553852,31.7689071 C170.863954,31.6620006 171.125437,31.4188537 171.231214,31.0010061 C171.355386,30.5101492 171.484156,30.020596 171.619497,29.5336503 C172.392123,28.9019898 173.658808,28.9189384 174.743506,28.905901 C178.048189,28.8641815 181.354843,28.8987305 184.660182,28.9091604 C184.382931,27.7677388 184.479509,26.5422262 185.101683,25.4060196 C186.427498,22.9901953 189.621148,22.1968714 192.083564,23.1583773 C192.423887,20.6662844 194.021698,18.3384624 196.555069,17.5809913 C198.256685,17.0712302 199.983923,17.637052 200.91817,19.1682908 C201.699993,20.4524716 201.692109,21.8787597 201.419456,23.278973 C204.083569,22.4230698 207.020335,24.1120608 208.016996,26.9326954 C208.087294,27.1315152 208.147738,27.3348982 208.19964,27.5428442 C212.852476,27.4607088 217.508596,27.3316388 222.162089,27.3146903 C222.904493,27.3114309 223.779609,27.325772 224.557491,27.499169 C224.578515,27.6399726 224.621219,27.7794724 224.68889,27.9118017 C224.854452,28.2305654 225.044324,28.5356398 225.213828,28.8530997 C225.311064,29.0343191 225.370193,29.2142348 225.376763,29.4254402 C225.391874,29.9162971 225.702632,30.3478339 226.14479,30.5179716 C226.027845,30.5772916 225.899731,30.6137963 225.763733,30.6144481 C219.913196,30.6196631 214.062003,30.6242261 208.210809,30.6294411 C208.077439,31.1346391 207.877056,31.6189773 207.582065,32.0544254 L228.967895,32.0544254 C229.749062,32.0544254 230.114351,32.6860859 230.073617,33.2858048 C230.095955,33.3764145 230.111066,33.4722392 230.111723,33.5791456 C230.117636,35.5060686 230.124206,37.4329916 230.130119,39.3599146 Z M219.01929,63.1045471 L214.609542,63.1045471 C214.440037,61.9344433 214.313894,60.7610802 214.228485,59.5844577 C215.826953,59.6235698 217.425421,59.6633338 219.024545,59.7024459 C219.025859,59.8543313 219.02783,60.0055647 219.028487,60.1574501 C218.894461,60.1268122 218.763062,60.0857445 218.631006,60.0505436 L218.631006,61.2356404 C218.691449,61.2499815 218.749922,61.2682338 218.811022,61.2812712 C218.891176,61.2988716 218.963445,61.2962642 219.032429,61.2858343 C219.033086,61.8920719 219.02126,62.4983095 219.01929,63.1045471 Z M218.987754,67.4551168 L215.419616,67.3697221 C215.175871,66.3306438 214.963662,65.2909137 214.787588,64.2472724 L219.010749,64.2472724 C219.003522,65.3169885 219.004836,66.3854008 218.987754,67.4551168 Z M214.120081,54.1511346 L218.948334,54.1511346 C218.948334,54.1517865 218.947677,54.1517865 218.947677,54.1524383 C218.982498,55.6217497 219.001551,57.0897574 219.014691,58.5590687 L214.150303,58.439125 C214.07869,57.0160962 214.069493,55.5872007 214.120081,54.1511346 Z M213.384904,66.7921667 C213.3422,66.9675193 213.306065,67.1435237 213.261389,67.3182245 C212.702287,67.3045352 212.142527,67.2914979 211.582768,67.2784605 C210.04343,67.498792 208.396344,67.3201801 206.889199,67.0079351 L206.889199,64.2472724 L213.622736,64.2472724 C213.745594,64.9897505 213.883563,65.730273 214.039271,66.4701437 C213.827062,66.5900875 213.608939,66.6989495 213.384904,66.7921667 Z M205.736831,58.2311789 C203.660728,58.1796813 201.583968,58.1288356 199.507865,58.077338 C199.612327,56.7677344 199.728615,55.4587826 199.867898,54.1511346 L205.736831,54.1511346 L205.736831,58.2311789 Z M205.736831,63.1045471 L199.186595,63.1045471 C199.199735,62.8346736 199.210904,62.5648001 199.225357,62.2955784 C199.382379,62.2655925 199.536773,62.2238729 199.692481,62.1906276 C199.691167,61.8249294 199.735842,61.4325047 199.838333,61.0068346 C199.655032,61.049206 199.472387,61.0915775 199.289743,61.128734 C199.327849,60.4912067 199.379751,59.855635 199.426398,59.2187596 C201.530094,59.2702572 203.633134,59.3224066 205.736831,59.3739042 L205.736831,63.1045471 Z M205.736831,67.1389607 C203.502392,67.0855074 201.267297,67.0327061 199.032858,66.9792529 C199.055853,66.0685927 199.090674,65.1572807 199.131407,64.2472724 L205.736831,64.2472724 L205.736831,67.1389607 Z M206.889199,59.4025865 L213.071518,59.5557755 C213.155613,60.742176 213.277157,61.9253172 213.444691,63.1045471 L206.889199,63.1045471 L206.889199,59.4025865 Z M206.889199,54.1511346 L208.043538,54.1511346 L208.042881,54.1517865 C209.327306,53.8695274 210.705023,53.9418848 212.072886,54.1211487 C212.111649,54.1263636 212.149097,54.1420084 212.18786,54.1511346 L212.967056,54.1511346 C212.917124,55.5761189 212.924351,56.9958883 212.992021,58.4104427 C210.957309,58.3602489 208.923254,58.310055 206.889199,58.2598611 L206.889199,54.1511346 Z M195.369456,65.7061539 C194.433239,65.6826866 193.497679,65.6742124 192.561462,65.65596 C191.906438,60.4155899 189.986043,55.6132754 186.850208,51.4067686 C188.22267,51.8389574 189.453877,52.6485779 190.417688,53.8610532 C190.58128,54.0676954 190.744215,54.2691228 190.907149,54.4679426 C191.466252,54.926858 191.968853,55.4477009 192.413638,56.021345 C192.760531,56.3016485 193.130419,56.5506622 193.54564,56.744919 C193.569948,57.200575 193.617909,57.6549273 193.684922,58.1060202 C194.056781,58.8921735 194.349801,59.7304763 194.567266,60.6039799 C194.800499,60.806711 195.07578,60.9370847 195.369456,61.0003159 L195.369456,65.7061539 Z M193.671782,74.5670011 C193.578489,72.8688839 193.569291,71.1688111 193.644846,69.4641752 C193.653387,69.4563528 193.663242,69.450486 193.671782,69.4433155 L193.671782,74.5670011 Z M180.31574,65.5444905 C180.315083,65.448014 180.314426,65.3508856 180.315083,65.2544091 C181.567972,65.3417595 182.821517,65.4089019 184.076377,65.4610514 C182.822831,65.3697898 181.569286,65.2922175 180.314426,65.2387643 C180.349904,60.3640923 182.024583,55.8714153 185.266194,52.1531579 C188.29691,56.1002211 190.193653,60.6802485 190.829624,65.6253222 C187.325215,65.5679578 183.820806,65.5340606 180.31574,65.5444905 Z M172.906812,65.6135886 C172.716941,65.6168479 172.552035,65.6579156 172.411439,65.72571 C172.400927,65.6774717 172.38713,65.6331446 172.384502,65.5809952 C172.150612,61.3731846 173.892304,57.4965232 176.901996,55.0389794 C177.359922,54.372118 177.863836,53.7482799 178.455788,53.2052735 C178.544483,53.1257456 178.639747,53.0520845 178.730412,52.9745121 C179.632466,52.2157373 180.715193,51.6212333 182.102765,51.2966029 C182.72691,51.1499325 183.349084,51.0651896 183.960746,51.0391148 C180.416917,55.1439302 178.545797,60.1424571 178.588501,65.5464461 C176.694386,65.5588316 174.800928,65.5803433 172.906812,65.6135886 Z M229.792358,82.8592235 C230.103773,84.2235841 230.478917,85.5683886 230.890853,86.9021113 C209.400561,85.972547 187.885303,85.8037131 166.383185,86.3969133 C166.255728,86.4008245 166.140097,86.3864834 166.025123,86.3721423 L166.025123,82.4413758 C166.140097,82.4205161 166.255728,82.4003081 166.383185,82.3963969 C182.725268,81.9459559 199.074577,81.935526 215.415346,82.3644554 C215.453452,82.3670628 215.488929,82.3748853 215.528349,82.3742334 C215.568426,82.3742334 215.607845,82.3722778 215.647922,82.3716259 C220.363172,82.4961328 225.078422,82.6610555 229.792358,82.8592235 Z M180.586093,71.2955995 C179.103914,71.2955995 179.101286,73.581702 180.586093,73.581702 C182.068273,73.581702 182.070901,71.2955995 180.586093,71.2955995 Z" id="Combined-Shape" fill="#9BF0FF"></path>
                        </g>
                    </g>
                </g>
            </g>
        </g>
    </g>
</svg>